<svg version="1.1" xmlns="http://www.w3.org/2000/svg" viewBox="0 0 1749.1506134397903 944.0710924364889" width="3498.3012268795806" height="1888.1421848729779">
  <!-- svg-source:excalidraw -->
  
  <defs>
    <style class="style-fonts">
      @font-face {
        font-family: "Virgil";
        src: url("https://excalidraw.com/Virgil.woff2");
      }
      @font-face {
        font-family: "Cascadia";
        src: url("https://excalidraw.com/Cascadia.woff2");
      }
    </style>
  </defs>
  <rect x="0" y="0" width="1749.1506134397903" height="944.0710924364889" fill="#ffffff"></rect><g stroke-linecap="round" transform="translate(1321.4078187165421 616.8323190796623) rotate(0 40 39)"><path d="M40.34 0.98 C47.06 0.58, 55.77 2.6, 61.88 6.35 C67.99 10.09, 74.05 16.89, 77 23.47 C79.94 30.04, 80.95 38.75, 79.57 45.8 C78.19 52.85, 73.51 60.45, 68.72 65.74 C63.93 71.04, 57.73 76.01, 50.83 77.57 C43.92 79.13, 34.37 77.43, 27.3 75.1 C20.24 72.78, 13.01 68.89, 8.45 63.63 C3.89 58.36, 0.56 50.5, -0.06 43.51 C-0.67 36.51, 1.57 28.04, 4.76 21.66 C7.95 15.29, 12.76 8.82, 19.07 5.27 C25.38 1.72, 38.31 0.96, 42.6 0.38 C46.88 -0.2, 44.76 1.04, 44.77 1.79 M43.7 1.39 C50.5 1.02, 57.04 3.21, 62.75 7.3 C68.45 11.4, 75.1 19.47, 77.93 25.95 C80.76 32.42, 81.25 39.24, 79.71 46.15 C78.17 53.06, 73.75 62.14, 68.71 67.4 C63.67 72.66, 56.35 76.48, 49.46 77.7 C42.57 78.92, 34.07 77.08, 27.38 74.7 C20.7 72.32, 13.99 68.83, 9.36 63.42 C4.72 58.01, 0.08 49.6, -0.45 42.25 C-0.97 34.9, 2.65 25.43, 6.19 19.31 C9.73 13.19, 14.78 8.72, 20.81 5.52 C26.84 2.33, 38.54 0.83, 42.36 0.13 C46.18 -0.56, 43.88 0.73, 43.73 1.36" stroke="#000000" stroke-width="1" fill="none"></path></g><g transform="translate(1347.5835541829474 633.2551546133868) rotate(0 14.039993286132812 22.5)"><text x="14.039993286132812" y="0" font-family="Virgil, Segoe UI Emoji" font-size="36px" fill="#000000" text-anchor="middle" style="white-space: pre;" direction="ltr" dominant-baseline="text-before-edge">D</text></g><g stroke-linecap="round" transform="translate(440.65034053062413 711.1193888273751) rotate(0 40 39)"><path d="M58.76 4.14 C65.23 6.87, 71.55 13.7, 74.95 19.93 C78.35 26.16, 79.5 34.41, 79.18 41.55 C78.86 48.68, 77.2 57.26, 73.04 62.72 C68.88 68.18, 61.14 71.92, 54.22 74.32 C47.3 76.73, 38.59 78.37, 31.53 77.16 C24.46 75.95, 16.82 71.96, 11.85 67.06 C6.88 62.16, 3.35 54.66, 1.72 47.76 C0.09 40.85, -0.13 32.17, 2.04 25.61 C4.22 19.05, 9.15 12.54, 14.79 8.4 C20.42 4.26, 28.35 1.16, 35.86 0.79 C43.37 0.42, 55.58 5.23, 59.84 6.16 C64.1 7.08, 61.56 5.84, 61.43 6.34 M56.98 3.98 C63.77 6.13, 70.35 10.68, 74.27 16.63 C78.19 22.59, 80.42 32.37, 80.5 39.7 C80.58 47.03, 78.47 54.95, 74.74 60.61 C71.01 66.27, 64.62 70.63, 58.13 73.65 C51.64 76.67, 43.27 79.5, 35.8 78.74 C28.33 77.98, 18.79 74.01, 13.31 69.08 C7.82 64.14, 4.85 55.83, 2.88 49.13 C0.91 42.43, -0.22 35.46, 1.49 28.87 C3.2 22.27, 7.57 14.25, 13.17 9.59 C18.76 4.92, 28.05 1.91, 35.08 0.88 C42.11 -0.15, 51.74 2.81, 55.36 3.42 C58.99 4.04, 57.11 4.18, 56.83 4.56" stroke="#000000" stroke-width="1" fill="none"></path></g><g transform="translate(468.7340731283771 727.5422243610997) rotate(0 12.131996154785156 22.5)"><text x="12.131996154785156" y="0" font-family="Virgil, Segoe UI Emoji" font-size="36px" fill="#000000" text-anchor="middle" style="white-space: pre;" direction="ltr" dominant-baseline="text-before-edge">E</text></g><g stroke-linecap="round" transform="translate(820.1614116754739 852.4007170086343) rotate(0 40 39)"><path d="M32.58 0.93 C39.32 -0.61, 49.67 1.46, 56.36 3.99 C63.06 6.52, 68.92 10.46, 72.76 16.13 C76.6 21.79, 79.21 30.78, 79.39 37.98 C79.57 45.17, 77.38 53.33, 73.85 59.32 C70.31 65.31, 64.64 70.92, 58.16 73.93 C51.69 76.94, 42.41 78.15, 35.02 77.38 C27.63 76.62, 19.44 73.64, 13.82 69.33 C8.19 65.02, 3.4 58.13, 1.26 51.54 C-0.87 44.94, -0.98 36.75, 1.02 29.76 C3.01 22.76, 6.99 14.46, 13.22 9.6 C19.46 4.73, 33.54 2.18, 38.43 0.57 C43.32 -1.04, 42.74 -0.67, 42.57 -0.06 M46.88 1.25 C53.8 2.08, 62.25 6.11, 67.77 10.54 C73.3 14.98, 78.05 20.99, 80.03 27.86 C82 34.73, 82.1 44.82, 79.62 51.76 C77.14 58.7, 70.69 65.31, 65.13 69.48 C59.57 73.65, 53.33 75.86, 46.25 76.78 C39.17 77.7, 29.45 77.86, 22.64 74.99 C15.83 72.12, 9.02 65.57, 5.38 59.54 C1.75 53.51, 0.81 45.85, 0.84 38.8 C0.86 31.76, 1.56 23.14, 5.52 17.27 C9.49 11.4, 18.01 6.62, 24.61 3.6 C31.21 0.58, 41.68 -0.42, 45.15 -0.83 C48.62 -1.25, 45.41 0.48, 45.44 1.11" stroke="#000000" stroke-width="1" fill="none"></path></g><g transform="translate(850.0451473249847 868.8235525423588) rotate(0 10.331993103027344 22.5)"><text x="10.331993103027344" y="0" font-family="Virgil, Segoe UI Emoji" font-size="36px" fill="#000000" text-anchor="middle" style="white-space: pre;" direction="ltr" dominant-baseline="text-before-edge">F</text></g><g stroke-linecap="round" transform="translate(533.4001601447635 121.65063517039619) rotate(0 40 39)"><path d="M47.33 -0.27 C53.95 0.32, 61.88 5.74, 67.09 10.78 C72.29 15.81, 76.69 23.13, 78.58 29.95 C80.47 36.78, 80.79 45.14, 78.43 51.71 C76.06 58.28, 70.29 64.99, 64.38 69.38 C58.47 73.77, 50.2 77.26, 42.96 78.07 C35.72 78.89, 27.26 77.4, 20.93 74.26 C14.6 71.11, 8.42 65.53, 4.96 59.23 C1.51 52.94, -0.37 43.55, 0.2 36.47 C0.77 29.4, 4.06 22.55, 8.38 16.79 C12.69 11.02, 19.27 4.44, 26.09 1.88 C32.91 -0.68, 45.04 1.27, 49.31 1.43 C53.58 1.6, 51.95 2.22, 51.71 2.86 M51.39 0.42 C58.22 1.64, 66.17 8.2, 70.74 13.58 C75.32 18.96, 77.59 26.11, 78.83 32.68 C80.07 39.26, 80.88 46.52, 78.18 53.05 C75.49 59.58, 68.9 67.7, 62.67 71.86 C56.43 76.02, 47.84 77.81, 40.79 78 C33.74 78.19, 26.68 76.61, 20.38 73 C14.09 69.39, 6.27 62.65, 3.01 56.34 C-0.25 50.03, 0.05 42.34, 0.83 35.14 C1.6 27.95, 3.36 18.72, 7.65 13.17 C11.95 7.62, 19.62 4.05, 26.6 1.83 C33.59 -0.4, 45.74 0.03, 49.57 -0.19 C53.4 -0.41, 49.5 -0.34, 49.59 0.51" stroke="#000000" stroke-width="1" fill="none"></path></g><g transform="translate(561.807890240075 138.07347070412084) rotate(0 11.807998657226562 22.5)"><text x="11.807998657226562" y="0" font-family="Virgil, Segoe UI Emoji" font-size="36px" fill="#000000" text-anchor="middle" style="white-space: pre;" direction="ltr" dominant-baseline="text-before-edge">A</text></g><g stroke-linecap="round" transform="translate(44.40068005960438 285.40212397071673) rotate(0 40 39)"><path d="M20.62 4.76 C26.58 1.08, 36.44 -0.49, 43.64 -0.04 C50.84 0.42, 58.29 3.21, 63.81 7.51 C69.34 11.8, 74.36 18.97, 76.79 25.73 C79.22 32.48, 79.9 41.09, 78.42 48.05 C76.93 55.01, 72.84 62.74, 67.86 67.49 C62.87 72.24, 55.37 75.15, 48.53 76.57 C41.69 77.99, 33.43 78.52, 26.8 76 C20.17 73.47, 13.27 67.08, 8.76 61.4 C4.25 55.73, 0.32 48.73, -0.26 41.94 C-0.85 35.14, 1.23 27.08, 5.27 20.63 C9.32 14.19, 19.95 6.19, 24 3.25 C28.06 0.31, 29.16 2.28, 29.61 2.99 M28.86 1.96 C35.28 -0.67, 46.23 -1.27, 53.18 0.87 C60.13 3, 66.25 9.23, 70.57 14.78 C74.88 20.32, 78.03 27.23, 79.09 34.15 C80.15 41.07, 80.13 49.97, 76.92 56.29 C73.71 62.62, 66 68.42, 59.83 72.09 C53.66 75.77, 47.11 78.68, 39.9 78.35 C32.69 78.02, 22.79 74.09, 16.56 70.11 C10.34 66.12, 5.26 60.88, 2.53 54.43 C-0.21 47.97, -1.11 38.52, 0.15 31.37 C1.41 24.21, 5.02 16.5, 10.09 11.48 C15.16 6.47, 27.56 2.74, 30.57 1.29 C33.57 -0.15, 27.97 2.3, 28.13 2.81" stroke="#000000" stroke-width="1" fill="none"></path></g><g transform="translate(71.53041027698623 301.8249595044414) rotate(0 13.08599853515625 22.5)"><text x="13.08599853515625" y="0" font-family="Virgil, Segoe UI Emoji" font-size="36px" fill="#000000" text-anchor="middle" style="white-space: pre;" direction="ltr" dominant-baseline="text-before-edge">B</text></g><g stroke-linecap="round" transform="translate(176.97639208707005 478.25228502349523) rotate(0 40 39)"><path d="M40.61 -0.34 C47.24 -0.67, 55.71 2.81, 61.62 6.9 C67.54 10.99, 73.18 17.66, 76.1 24.22 C79.01 30.77, 80.17 39.48, 79.12 46.22 C78.07 52.95, 74.43 59.46, 69.8 64.61 C65.17 69.77, 58.17 75.37, 51.32 77.15 C44.48 78.93, 35.83 77.46, 28.75 75.3 C21.67 73.14, 13.54 69.36, 8.85 64.17 C4.16 58.97, 1.56 51.11, 0.61 44.14 C-0.34 37.17, -0.01 28.64, 3.16 22.36 C6.33 16.08, 12.7 9.98, 19.61 6.45 C26.53 2.92, 40.08 1.86, 44.63 1.19 C49.18 0.52, 46.91 2.01, 46.9 2.43 M47.43 1.5 C53.96 2.38, 61.61 5.99, 66.99 10.79 C72.37 15.58, 78.09 23.45, 79.7 30.26 C81.3 37.07, 79 45.03, 76.6 51.66 C74.21 58.28, 71.01 65.86, 65.34 70 C59.67 74.13, 50 75.9, 42.6 76.49 C35.19 77.08, 27.15 76.75, 20.89 73.52 C14.62 70.29, 8.51 63.41, 5.01 57.11 C1.51 50.8, -0.69 42.5, -0.1 35.7 C0.49 28.9, 4.61 21.67, 8.57 16.3 C12.52 10.92, 16.95 6.19, 23.63 3.47 C30.3 0.74, 44.61 0.5, 48.63 -0.05 C52.64 -0.61, 48.09 -0.67, 47.71 0.12" stroke="#000000" stroke-width="1" fill="none"></path></g><g transform="translate(205.60012560035034 494.6751205572199) rotate(0 11.591995239257812 22.500000000000057)"><text x="11.591995239257812" y="0" font-family="Virgil, Segoe UI Emoji" font-size="36px" fill="#000000" text-anchor="middle" style="white-space: pre;" direction="ltr" dominant-baseline="text-before-edge">C</text></g><g stroke-linecap="round" transform="translate(1636.4020941456197 625.8234871043437) rotate(0 40 39)"><path d="M37.96 -0.78 C44.73 -1.67, 54.14 2.55, 60.55 6.01 C66.96 9.47, 73.29 13.83, 76.41 20 C79.53 26.18, 80.02 35.94, 79.26 43.08 C78.49 50.21, 76.02 57.42, 71.81 62.8 C67.61 68.19, 60.83 72.95, 54.04 75.38 C47.26 77.81, 38.23 78.98, 31.1 77.38 C23.98 75.78, 16.38 71.04, 11.29 65.78 C6.19 60.52, 2.04 52.68, 0.53 45.8 C-0.98 38.93, -0.52 31.06, 2.21 24.54 C4.94 18.02, 10.02 10.93, 16.89 6.69 C23.76 2.46, 38.31 0.08, 43.43 -0.84 C48.54 -1.76, 47.83 0.43, 47.59 1.18 M56.22 4.47 C62.83 6.85, 69.63 12.77, 73.47 18.33 C77.31 23.9, 78.98 31.13, 79.27 37.86 C79.56 44.58, 78.93 52.77, 75.2 58.68 C71.47 64.59, 63.76 69.93, 56.88 73.31 C49.99 76.68, 41.01 79.81, 33.89 78.93 C26.77 78.06, 19.59 72.97, 14.17 68.08 C8.74 63.19, 3.24 56.28, 1.32 49.58 C-0.6 42.88, 0.79 34.51, 2.65 27.89 C4.5 21.26, 7.21 14.38, 12.46 9.85 C17.71 5.33, 26.73 2.05, 34.14 0.72 C41.55 -0.6, 53.19 1.41, 56.92 1.91 C60.66 2.4, 57.17 2.99, 56.56 3.7" stroke="#000000" stroke-width="1" fill="none"></path></g><g transform="translate(1657.7898352272591 642.2463226380682) rotate(0 18.827987670898438 22.5)"><text x="18.827987670898438" y="0" font-family="Virgil, Segoe UI Emoji" font-size="36px" fill="#000000" text-anchor="middle" style="white-space: pre;" direction="ltr" dominant-baseline="text-before-edge">D'</text></g><g stroke-linecap="round" transform="translate(995.1119317323822 710.5824328461308) rotate(0 40 39)"><path d="M56.82 3.24 C63.15 5.58, 69.64 11.61, 73.39 17.55 C77.14 23.49, 79.2 31.56, 79.31 38.86 C79.41 46.16, 77.9 55.32, 74.02 61.35 C70.14 67.37, 62.88 72.48, 56.04 75.01 C49.21 77.55, 40.07 77.62, 33 76.54 C25.93 75.45, 18.76 73.18, 13.61 68.49 C8.47 63.79, 4.06 55.21, 2.14 48.39 C0.21 41.56, 0.15 33.95, 2.06 27.54 C3.97 21.13, 8.03 14.55, 13.6 9.91 C19.18 5.27, 27.29 0.07, 35.51 -0.29 C43.73 -0.66, 57.63 5.55, 62.95 7.74 C68.28 9.93, 67.8 12.52, 67.45 12.84 M49.14 0.58 C56.1 1.17, 64.06 5.05, 69.27 9.8 C74.48 14.56, 78.82 21.95, 80.41 29.1 C82.01 36.26, 81.34 46.1, 78.85 52.73 C76.36 59.35, 71.57 64.66, 65.47 68.86 C59.38 73.06, 49.65 77.24, 42.28 77.92 C34.9 78.61, 27.64 76.53, 21.23 72.95 C14.81 69.36, 7.17 62.51, 3.77 56.42 C0.37 50.33, 0.32 42.96, 0.81 36.41 C1.31 29.86, 2.36 22.8, 6.75 17.1 C11.14 11.4, 20.07 5.06, 27.15 2.2 C34.22 -0.66, 45.61 -0.14, 49.21 -0.07 C52.81 0, 48.84 1.94, 48.72 2.64" stroke="#000000" stroke-width="1" fill="none"></path></g><g transform="translate(1018.4076699453695 727.0052683798554) rotate(0 16.91999053955078 22.5)"><text x="16.91999053955078" y="0" font-family="Virgil, Segoe UI Emoji" font-size="36px" fill="#000000" text-anchor="middle" style="white-space: pre;" direction="ltr" dominant-baseline="text-before-edge">E'</text></g><g stroke-linecap="round" transform="translate(1466.0767578117895 856.0710924364889) rotate(0 40 39)"><path d="M59.41 4.79 C65.74 7.37, 71.54 13.77, 75.12 19.75 C78.69 25.72, 81.21 33.62, 80.86 40.66 C80.52 47.69, 77.56 56.06, 73.05 61.98 C68.55 67.89, 60.82 73.58, 53.84 76.15 C46.86 78.72, 38.02 78.78, 31.17 77.38 C24.32 75.98, 17.84 72.79, 12.73 67.74 C7.62 62.69, 2.2 53.92, 0.49 47.08 C-1.22 40.23, -0.18 33.01, 2.48 26.68 C5.13 20.35, 10.89 13.44, 16.41 9.1 C21.94 4.76, 27.92 0.94, 35.65 0.66 C43.37 0.37, 58.05 6.08, 62.77 7.38 C67.5 8.69, 64.32 8.26, 64 8.5 M21.56 2.39 C27.5 -1.1, 36.6 -1.61, 43.84 -0.4 C51.08 0.82, 59.45 4.79, 65 9.67 C70.54 14.55, 74.83 22.52, 77.12 28.9 C79.4 35.28, 80.23 41.63, 78.71 47.94 C77.19 54.24, 73.52 61.65, 68 66.75 C62.48 71.86, 53.03 77.05, 45.58 78.57 C38.13 80.09, 29.76 78.95, 23.28 75.87 C16.8 72.78, 10.57 66.14, 6.68 60.05 C2.79 53.96, -0.06 46.34, -0.06 39.32 C-0.06 32.3, 2.61 23.77, 6.66 17.92 C10.72 12.07, 21.66 6.63, 24.26 4.2 C26.86 1.77, 22.06 2.99, 22.24 3.35" stroke="#000000" stroke-width="1" fill="none"></path></g><g transform="translate(1491.1724990765347 872.4939279702135) rotate(0 15.119987487792969 22.5)"><text x="15.119987487792969" y="0" font-family="Virgil, Segoe UI Emoji" font-size="36px" fill="#000000" text-anchor="middle" style="white-space: pre;" direction="ltr" dominant-baseline="text-before-edge">F'</text></g><g stroke-linecap="round" transform="translate(1150.6732537220591 110.11967138279067) rotate(0 40 39)"><path d="M41.86 -0.95 C48.77 -1.43, 57.48 1.71, 63.44 5.87 C69.41 10.02, 74.87 17.5, 77.67 23.98 C80.48 30.47, 81.74 37.89, 80.28 44.78 C78.83 51.67, 73.94 60.08, 68.95 65.35 C63.96 70.63, 57.36 74.81, 50.34 76.43 C43.33 78.06, 33.67 77.24, 26.87 75.11 C20.07 72.99, 14.12 68.82, 9.56 63.7 C5.01 58.57, 0.32 51.37, -0.45 44.36 C-1.21 37.34, 1.59 28.17, 4.99 21.62 C8.39 15.06, 12.84 8.42, 19.93 5.03 C27.02 1.65, 41.95 1.74, 47.54 1.31 C53.12 0.89, 53.75 1.8, 53.42 2.47 M51.23 1.26 C58 2.81, 66.63 8.58, 71.13 13.86 C75.62 19.14, 77.2 26.14, 78.19 32.93 C79.17 39.73, 79.85 48.01, 77.05 54.61 C74.25 61.21, 67.28 68.6, 61.4 72.52 C55.52 76.45, 48.73 78.38, 41.75 78.16 C34.77 77.95, 25.82 75.02, 19.53 71.24 C13.24 67.46, 7.16 61.57, 4.02 55.49 C0.88 49.42, -0.44 41.93, 0.71 34.78 C1.86 27.62, 6.36 18.12, 10.9 12.55 C15.43 6.98, 21.21 3.29, 27.92 1.38 C34.62 -0.54, 47.43 1.1, 51.13 1.06 C54.82 1.03, 50.33 0.34, 50.11 1.17" stroke="#000000" stroke-width="1" fill="none"></path></g><g transform="translate(1174.2929894326048 126.54250691651532) rotate(0 16.595993041992188 22.5)"><text x="16.595993041992188" y="0" font-family="Virgil, Segoe UI Emoji" font-size="36px" fill="#000000" text-anchor="middle" style="white-space: pre;" direction="ltr" dominant-baseline="text-before-edge">A'</text></g><g stroke-linecap="round" transform="translate(283.32045462931046 292.46948887279746) rotate(0 40 39)"><path d="M22.39 4.63 C28.19 1.08, 37.56 -1.25, 44.5 -0.64 C51.45 -0.04, 58.48 3.86, 64.04 8.28 C69.6 12.69, 75.52 19.37, 77.86 25.83 C80.2 32.29, 79.69 40.17, 78.08 47.05 C76.47 53.92, 73.38 61.9, 68.2 67.08 C63.03 72.25, 54.01 76.78, 47.01 78.11 C40.01 79.44, 32.67 77.86, 26.2 75.03 C19.72 72.2, 12.44 66.7, 8.15 61.14 C3.87 55.59, 0.84 48.68, 0.48 41.7 C0.12 34.72, 1.59 25.75, 5.99 19.26 C10.39 12.78, 22.07 5.69, 26.9 2.79 C31.72 -0.12, 34.69 1.34, 34.93 1.84 M35.74 -0.03 C42.42 -1.22, 53.16 0.97, 59.63 4.5 C66.09 8.04, 70.92 14.95, 74.53 21.19 C78.13 27.42, 81.53 35.17, 81.26 41.9 C80.98 48.62, 77.38 55.96, 72.88 61.55 C68.38 67.15, 61.1 72.72, 54.27 75.47 C47.44 78.22, 38.76 79.74, 31.91 78.07 C25.05 76.39, 18.37 70.59, 13.14 65.41 C7.9 60.24, 2.22 53.76, 0.49 47.03 C-1.25 40.29, 0.25 31.72, 2.74 25.01 C5.23 18.3, 9.7 10.77, 15.42 6.76 C21.13 2.75, 33.6 2.15, 37.04 0.94 C40.48 -0.26, 35.86 -1.18, 36.06 -0.47" stroke="#000000" stroke-width="1" fill="none"></path></g><g transform="translate(305.6621904619267 308.8923244065221) rotate(0 17.873992919921875 22.5)"><text x="17.873992919921875" y="0" font-family="Virgil, Segoe UI Emoji" font-size="36px" fill="#000000" text-anchor="middle" style="white-space: pre;" direction="ltr" dominant-baseline="text-before-edge">B'</text></g><g stroke-linecap="round" transform="translate(656.5116629669699 474.5927234897848) rotate(0 40 39.00000000000006)"><path d="M43.95 0.28 C50.7 0.58, 59.85 4.24, 65.39 8.51 C70.93 12.78, 74.9 19.19, 77.2 25.91 C79.49 32.63, 80.99 41.72, 79.18 48.83 C77.38 55.94, 71.6 63.82, 66.36 68.55 C61.13 73.27, 54.66 76.22, 47.78 77.19 C40.91 78.15, 31.84 76.91, 25.11 74.34 C18.39 71.76, 11.5 67.5, 7.44 61.74 C3.37 55.98, 1.15 46.78, 0.73 39.79 C0.3 32.8, 1.21 25.65, 4.9 19.8 C8.58 13.95, 15.6 7.78, 22.86 4.69 C30.13 1.59, 43.43 1.39, 48.47 1.24 C53.51 1.09, 53.07 3.35, 53.1 3.8 M37.62 0.96 C44.58 0.18, 54.96 2.19, 61.43 5.43 C67.89 8.67, 73.31 14.21, 76.42 20.42 C79.52 26.64, 80.83 35.45, 80.05 42.73 C79.27 50.01, 76.03 58.79, 71.75 64.12 C67.47 69.44, 61.34 72.6, 54.39 74.68 C47.44 76.76, 37.25 78.11, 30.05 76.57 C22.86 75.03, 16.22 70.67, 11.23 65.45 C6.24 60.23, 1.54 51.95, 0.14 45.25 C-1.26 38.56, 0.23 31.84, 2.84 25.27 C5.45 18.71, 9.74 9.84, 15.77 5.84 C21.81 1.84, 35.42 2.18, 39.06 1.29 C42.7 0.39, 37.89 -0.18, 37.62 0.46" stroke="#000000" stroke-width="1" fill="none"></path></g><g transform="translate(680.3474020954845 491.01555902350935) rotate(0 16.379989624023438 22.500000000000057)"><text x="16.379989624023438" y="0" font-family="Virgil, Segoe UI Emoji" font-size="36px" fill="#000000" text-anchor="middle" style="white-space: pre;" direction="ltr" dominant-baseline="text-before-edge">C'</text></g><g mask="url(#mask-f-_nThrJTvnXJqHUlUHAe)" stroke-linecap="round"><g transform="translate(615.022849997498 156.88073957507538) rotate(0 263.3802983608816 -1.9930113391631608)"><path d="M-0.02 -0.09 C88.02 -0.67, 440.12 -3.49, 528.26 -3.89 M-1.5 -1.19 C86.42 -1.59, 439.16 -2.22, 527.49 -2.78" stroke="#000000" stroke-width="1" fill="none"></path></g><g transform="translate(615.022849997498 156.88073957507538) rotate(0 263.3802983608816 -1.9930113391631608)"><path d="M499.18 8.17 C506.52 5.93, 517.35 -0.65, 528.85 -3.76 M499.3 6.82 C505.33 5.7, 512.67 3.25, 527.94 -3.75" stroke="#000000" stroke-width="1" fill="none"></path></g><g transform="translate(615.022849997498 156.88073957507538) rotate(0 263.3802983608816 -1.9930113391631608)"><path d="M499.1 -12.35 C506.38 -8.41, 517.24 -8.8, 528.85 -3.76 M499.22 -13.71 C505.1 -9.93, 512.45 -7.5, 527.94 -3.75" stroke="#000000" stroke-width="1" fill="none"></path></g></g><mask id="mask-f-_nThrJTvnXJqHUlUHAe"><rect x="0" y="0" fill="#fff" width="1242.9323803620473" height="259.96632142564465"></rect><rect x="842.6536329410031" y="132.83794864979075" fill="#000" width="72.64796447753906" height="45" opacity="1"></rect></mask><g transform="translate(842.6536329410031 132.83794864979075) rotate(0 35.74951541737653 22.049779586121474)"><text x="36.32398223876953" y="0" font-family="Virgil, Segoe UI Emoji" font-size="36px" fill="#000000" text-anchor="middle" style="white-space: pre;" direction="ltr" dominant-baseline="text-before-edge">250</text></g><g mask="url(#mask-VySlcrfOWWS_BzYYjBLxu)" stroke-linecap="round"><g transform="translate(127.05207633333384 333.9451384576063) rotate(0 74.92043726397958 1.0344086418185725)"><path d="M0.02 -0.55 C25.37 -0.48, 126.05 0.61, 151.27 1.06 M-1.43 1.78 C23.87 1.99, 125.15 2.81, 150.54 2.58" stroke="#000000" stroke-width="1" fill="none"></path></g><g transform="translate(127.05207633333384 333.9451384576063) rotate(0 74.92043726397958 1.0344086418185725)"><path d="M121.42 13.49 C128.67 11.31, 136.97 6.6, 150.19 3.21 M121.64 12.06 C132.77 9.06, 143.04 5.71, 151.49 3.32" stroke="#000000" stroke-width="1" fill="none"></path></g><g transform="translate(127.05207633333384 333.9451384576063) rotate(0 74.92043726397958 1.0344086418185725)"><path d="M121.44 -7.03 C128.79 -4.51, 137.09 -4.51, 150.19 3.21 M121.66 -8.46 C132.86 -4.15, 143.13 -0.18, 151.49 3.32" stroke="#000000" stroke-width="1" fill="none"></path></g></g><mask id="mask-VySlcrfOWWS_BzYYjBLxu"><rect x="0" y="0" fill="#fff" width="377.9172108109176" height="435.05919203611495"></rect><rect x="172.96465455845396" y="312.0021652468605" fill="#000" width="59.03997802734375" height="45" opacity="1"></rect></mask><g transform="translate(172.96465455845396 312.0021652468606) rotate(0 29.007859038859465 22.977381852564235)"><text x="29.519989013671875" y="0" font-family="Virgil, Segoe UI Emoji" font-size="36px" fill="#000000" text-anchor="middle" style="white-space: pre;" direction="ltr" dominant-baseline="text-before-edge">310</text></g><g mask="url(#mask-2KrrEIvIj2SqBOw6jc5Q4)" stroke-linecap="round"><g transform="translate(264.39309429271157 514.9850987363784) rotate(0 194.00821353133585 1.537244446739237)"><path d="M0.18 -1.06 C65.21 -0.77, 324.55 1.91, 389.2 2.63 M-1.18 0.99 C63.79 1.41, 323.07 4.1, 388.35 4.14" stroke="#000000" stroke-width="1" fill="none"></path></g><g transform="translate(264.39309429271157 514.9850987363784) rotate(0 194.00821353133585 1.537244446739237)"><path d="M358.33 14.56 C366.14 10.46, 373.43 11.53, 388.97 5.68 M360.39 15 C369.35 10.85, 376.69 8.24, 387.4 4.93" stroke="#000000" stroke-width="1" fill="none"></path></g><g transform="translate(264.39309429271157 514.9850987363784) rotate(0 194.00821353133585 1.537244446739237)"><path d="M358.45 -5.96 C366.38 -5.55, 373.64 0.02, 388.97 5.68 M360.51 -5.52 C369.54 -3.45, 376.84 0.15, 387.4 4.93" stroke="#000000" stroke-width="1" fill="none"></path></g></g><mask id="mask-2KrrEIvIj2SqBOw6jc5Q4"><rect x="0" y="0" fill="#fff" width="753.3919776604102" height="617.6773623381278"></rect><rect x="419.92255001464696" y="493.8312305372531" fill="#000" width="77.93997192382812" height="45" opacity="1"></rect></mask><g transform="translate(419.92255001464696 493.8312305372531) rotate(0 38.47875780940046 22.691112645864564)"><text x="38.96998596191406" y="0" font-family="Virgil, Segoe UI Emoji" font-size="36px" fill="#000000" text-anchor="middle" style="white-space: pre;" direction="ltr" dominant-baseline="text-before-edge">280</text></g><g mask="url(#mask-JyN4h-61lhwKD2ip87kfk)" stroke-linecap="round"><g transform="translate(902.9673044193048 895.8287560068347) rotate(0 280.48697441785305 -0.8652708573029031)"><path d="M0.03 -0.29 C93.81 -0.56, 468.62 -1.24, 562.39 -1.68 M-1.42 -1.49 C92.26 -1.53, 467.65 0.06, 561.59 -0.06" stroke="#000000" stroke-width="1" fill="none"></path></g><g transform="translate(902.9673044193048 895.8287560068347) rotate(0 280.48697441785305 -0.8652708573029031)"><path d="M532.89 10.6 C541.36 8.3, 546.98 5.8, 563 1.86 M534.36 10.34 C541.45 7.47, 549.77 4.56, 561.59 -0.11" stroke="#000000" stroke-width="1" fill="none"></path></g><g transform="translate(902.9673044193048 895.8287560068347) rotate(0 280.48697441785305 -0.8652708573029031)"><path d="M532.93 -9.92 C541.37 -6.62, 546.98 -3.51, 563 1.86 M534.4 -10.18 C541.47 -7.17, 549.77 -4.19, 561.59 -0.11" stroke="#000000" stroke-width="1" fill="none"></path></g></g><mask id="mask-JyN4h-61lhwKD2ip87kfk"><rect x="0" y="0" fill="#fff" width="1565.0918100720655" height="997.6702068741315"></rect><rect x="1147.8675699409978" y="872.4080305731864" fill="#000" width="72.323974609375" height="45" opacity="1"></rect></mask><g transform="translate(1147.8675699409978 872.4080305731864) rotate(0 35.586708896160076 22.555454576345483)"><text x="36.1619873046875" y="0" font-family="Virgil, Segoe UI Emoji" font-size="36px" fill="#000000" text-anchor="middle" style="white-space: pre;" direction="ltr" dominant-baseline="text-before-edge">290</text></g><g mask="url(#mask-AAClwKqCNRG1lJDPtrX_m)" stroke-linecap="round"><g transform="translate(525.9058113470933 753.2777109083981) rotate(0 231.3378742867419 0.5144649684336855)"><path d="M0.02 -0.63 C77.26 -0.61, 386.65 1.16, 464.11 1.09 M-1.44 1.66 C75.58 1.27, 385.47 -0.2, 463.1 -0.53" stroke="#000000" stroke-width="1" fill="none"></path></g><g transform="translate(525.9058113470933 753.2777109083981) rotate(0 231.3378742867419 0.5144649684336855)"><path d="M433.91 9.66 C446.46 7.13, 452.87 4.08, 463.21 -1.56 M434.91 10.16 C441.27 6.68, 448.84 4.47, 463.4 -0.43" stroke="#000000" stroke-width="1" fill="none"></path></g><g transform="translate(525.9058113470933 753.2777109083981) rotate(0 231.3378742867419 0.5144649684336855)"><path d="M433.82 -10.86 C446.56 -6.1, 453.01 -1.86, 463.21 -1.56 M434.81 -10.36 C441.3 -9.09, 448.89 -6.55, 463.4 -0.43" stroke="#000000" stroke-width="1" fill="none"></path></g></g><mask id="mask-AAClwKqCNRG1lJDPtrX_m"><rect x="0" y="0" fill="#fff" width="1090.1335035395116" height="853.4142634579557"></rect><rect x="720.5616725189859" y="730.8459871831769" fill="#000" width="74.91596984863281" height="45" opacity="1"></rect></mask><g transform="translate(720.5616725189859 730.8459871831769) rotate(0 36.68201311484927 22.946188693654904)"><text x="37.457984924316406" y="0" font-family="Virgil, Segoe UI Emoji" font-size="36px" fill="#000000" text-anchor="middle" style="white-space: pre;" direction="ltr" dominant-baseline="text-before-edge">230</text></g><g mask="url(#mask-0OQuuYTINk3_2FpmYS7nE)" stroke-linecap="round"><g transform="translate(1407.1019761119376 662.2827083455718) rotate(0 112.75452455468601 1.569626189362225)"><path d="M0.47 0.62 C38.24 0.91, 188.5 1.8, 226.25 2.07 M-0.74 -0.1 C36.88 0.3, 187.31 2.68, 225.18 3.24" stroke="#000000" stroke-width="1" fill="none"></path></g><g transform="translate(1407.1019761119376 662.2827083455718) rotate(0 112.75452455468601 1.569626189362225)"><path d="M197.87 12.69 C203.36 11.09, 211.35 7.53, 224.38 4.04 M196.75 12.29 C206.19 9.61, 214.07 7.49, 225.61 3.85" stroke="#000000" stroke-width="1" fill="none"></path></g><g transform="translate(1407.1019761119376 662.2827083455718) rotate(0 112.75452455468601 1.569626189362225)"><path d="M198.19 -7.83 C203.65 -3.84, 211.55 -1.81, 224.38 4.04 M197.06 -8.23 C206.31 -4.54, 214.09 -0.28, 225.61 3.85" stroke="#000000" stroke-width="1" fill="none"></path></g></g><mask id="mask-0OQuuYTINk3_2FpmYS7nE"><rect x="0" y="0" fill="#fff" width="1733.5761367323425" height="765.0497781469321"></rect><rect x="1493.393064906027" y="641.166243246252" fill="#000" width="53.89198303222656" height="45" opacity="1"></rect></mask><g transform="translate(1493.393064906027 641.166243246252) rotate(0 26.463435760596752 22.686091288682064)"><text x="26.94599151611328" y="0" font-family="Virgil, Segoe UI Emoji" font-size="36px" fill="#000000" text-anchor="middle" style="white-space: pre;" direction="ltr" dominant-baseline="text-before-edge">170</text></g><g stroke-linecap="round"><g transform="translate(1596.3153589631352 21.56997220843698) rotate(0 -2.9343260501274955 446.3708230527003)"><path d="M-1.54 2.5 C-1.87 151.23, -4.17 742.73, -4.33 890.24" stroke="#000000" stroke-width="1.5" fill="none" stroke-dasharray="1.5 7"></path></g></g><mask></mask><g transform="translate(1607.845860219068 20.666565596774603) rotate(0 57.707977294921875 22.5)"><text x="0" y="0" font-family="Virgil, Segoe UI Emoji" font-size="36px" fill="#000000" text-anchor="start" style="white-space: pre;" direction="ltr" dominant-baseline="text-before-edge">05/02</text></g><g transform="translate(1452.364429515726 18.693086320437146) rotate(0 59.39997863769531 22.5)"><text x="0" y="0" font-family="Virgil, Segoe UI Emoji" font-size="36px" fill="#000000" text-anchor="start" style="white-space: pre;" direction="ltr" dominant-baseline="text-before-edge">02/02</text></g><g stroke-linecap="round"><g transform="translate(1741.7367282639811 22.207018234406974) rotate(0 -3.737888315279772 446.4169933537487)"><path d="M-2.59 0.85 C-3.39 149.25, -3.96 743.41, -4.89 891.98" stroke="#000000" stroke-width="1.5" fill="none" stroke-dasharray="1.5 7"></path></g></g><mask></mask><g transform="translate(531.9823466793123 19.21827021370541) rotate(0 42.26398468017578 22.5)"><text x="0" y="0" font-family="Virgil, Segoe UI Emoji" font-size="36px" fill="#000000" text-anchor="start" style="white-space: pre;" direction="ltr" dominant-baseline="text-before-edge">15/01</text></g><g transform="translate(38.08987850545532 24.47328734134453) rotate(0 48.329986572265625 22.5)"><text x="0" y="0" font-family="Virgil, Segoe UI Emoji" font-size="36px" fill="#000000" text-anchor="start" style="white-space: pre;" direction="ltr" dominant-baseline="text-before-edge">07/01</text></g><g transform="translate(176.56432832819632 26.63385914231651) rotate(0 36.01799011230469 22.5)"><text x="0" y="0" font-family="Virgil, Segoe UI Emoji" font-size="36px" fill="#000000" text-anchor="start" style="white-space: pre;" direction="ltr" dominant-baseline="text-before-edge">11/01</text></g><g transform="translate(668.0429708636045 19.21827021370541) rotate(0 42.65998840332031 22.5)"><text x="0" y="0" font-family="Virgil, Segoe UI Emoji" font-size="36px" fill="#000000" text-anchor="start" style="white-space: pre;" direction="ltr" dominant-baseline="text-before-edge">16/01</text></g><g transform="translate(975.5643572019621 20.93564779909343) rotate(0 51.46198272705078 22.5)"><text x="0" y="0" font-family="Virgil, Segoe UI Emoji" font-size="36px" fill="#000000" text-anchor="start" style="white-space: pre;" direction="ltr" dominant-baseline="text-before-edge">20/01</text></g><g transform="translate(414.67833483312916 21.10975981235856) rotate(0 42.65998840332031 22.5)"><text x="0" y="0" font-family="Virgil, Segoe UI Emoji" font-size="36px" fill="#000000" text-anchor="start" style="white-space: pre;" direction="ltr" dominant-baseline="text-before-edge">14/01</text></g><g transform="translate(288.34424084442185 23.83223856523182) rotate(0 43.397987365722656 22.5)"><text x="0" y="0" font-family="Virgil, Segoe UI Emoji" font-size="36px" fill="#000000" text-anchor="start" style="white-space: pre;" direction="ltr" dominant-baseline="text-before-edge">13/01</text></g><g transform="translate(1152.4621626793528 19.218270213705296) rotate(0 50.597984313964844 22.5)"><text x="0" y="0" font-family="Virgil, Segoe UI Emoji" font-size="36px" fill="#000000" text-anchor="start" style="white-space: pre;" direction="ltr" dominant-baseline="text-before-edge">24/01</text></g><g transform="translate(810.9414486597645 22.732167208692886) rotate(0 44.90998840332031 22.5)"><text x="0" y="0" font-family="Virgil, Segoe UI Emoji" font-size="36px" fill="#000000" text-anchor="start" style="white-space: pre;" direction="ltr" dominant-baseline="text-before-edge">18/01</text></g><g transform="translate(1318.9923891850462 17.089355142417958) rotate(0 48.761985778808594 22.5)"><text x="0" y="0" font-family="Virgil, Segoe UI Emoji" font-size="36px" fill="#000000" text-anchor="start" style="white-space: pre;" direction="ltr" dominant-baseline="text-before-edge">27/01</text></g><g stroke-linecap="round"><g transform="translate(157.8586448815406 11.04563497605102) rotate(0 4.021388690124809 445.8686615147642)"><path d="M0.24 -0.92 C1.25 147.73, 5.78 744.02, 7.81 892.66" stroke="#000000" stroke-width="1.5" fill="none" stroke-dasharray="1.5 7"></path></g></g><mask></mask><g stroke-linecap="round"><g transform="translate(275.06374429527 13.556936796023706) rotate(0 -2.626063233792024 445.51522360590997)"><path d="M-2.09 1.71 C-2.66 150.08, -2.81 741.42, -3.16 889.33" stroke="#000000" stroke-width="1.5" fill="none" stroke-dasharray="1.5 7"></path></g></g><mask></mask><g stroke-linecap="round"><g transform="translate(7.510970133170531 16.059977754746797) rotate(0 6.661488930470341 444.58836582534275)"><path d="M2.49 -0.04 C4.64 147.88, 9.6 740.74, 10.83 889.22" stroke="#000000" stroke-width="1.5" fill="none" stroke-dasharray="1.5 7"></path></g></g><mask></mask><g stroke-linecap="round"><g transform="translate(516.9004573863979 10.095635932311438) rotate(0 -8.9592420018746 444.19787560561815)"><path d="M0.62 -0.1 C-2.34 147.8, -15.39 739.65, -18.54 888.49" stroke="#000000" stroke-width="1.5" fill="none" stroke-dasharray="1.5 7"></path></g></g><mask></mask><g stroke-linecap="round"><g transform="translate(634.1055568001273 12.606937752284125) rotate(0 -10.155939034326252 445.23542213300374)"><path d="M-2.04 -2.46 C-5.19 146.38, -15.46 744.17, -18.27 892.93" stroke="#000000" stroke-width="1.5" fill="none" stroke-dasharray="1.5 7"></path></g></g><mask></mask><g stroke-linecap="round"><g transform="translate(392.4505826564971 13.358676126026012) rotate(0 -10.34751559863821 446.04308622935923)"><path d="M-1.77 1.98 C-4.59 150.74, -16.02 741.48, -18.92 890.11" stroke="#000000" stroke-width="1.5" fill="none" stroke-dasharray="1.5 7"></path></g></g><mask></mask><g stroke-linecap="round"><g transform="translate(936.9735128055938 24.58518656465435) rotate(0 -7.2284093297553795 444.02179146865524)"><path d="M-0.05 -1.02 C-2.7 147.23, -11.97 740.66, -14.41 889.06" stroke="#000000" stroke-width="1.5" fill="none" stroke-dasharray="1.5 7"></path></g></g><mask></mask><g stroke-linecap="round"><g transform="translate(1102.5211722537993 33.911698915803186) rotate(0 -7.813621243788134 447.2574891963056)"><path d="M2.6 1.29 C-0.17 150.26, -15.3 745.41, -18.22 893.23" stroke="#000000" stroke-width="1.5" fill="none" stroke-dasharray="1.5 7"></path></g></g><mask></mask><g stroke-linecap="round"><g transform="translate(793.3006139471515 25.766489723391487) rotate(0 -6.069819983793593 443.08811039114516)"><path d="M2.12 -2.31 C0.12 145.41, -11.13 740.02, -14.26 888.48" stroke="#000000" stroke-width="1.5" fill="none" stroke-dasharray="1.5 7"></path></g></g><mask></mask><g stroke-linecap="round"><g transform="translate(1305.011403211604 20.644755748446983) rotate(0 -8.542476877523768 443.8671931424191)"><path d="M-2.18 -1.1 C-4.42 146.73, -12.69 739.69, -14.9 888.83" stroke="#000000" stroke-width="1.5" fill="none" stroke-dasharray="1.5 7"></path></g></g><mask></mask><g stroke-linecap="round"><g transform="translate(1435.4090980414403 20.644755748446983) rotate(0 -8.655425223661751 446.1375767149977)"><path d="M-2.19 2.68 C-4.59 151.41, -12.57 741.91, -15.12 889.59" stroke="#000000" stroke-width="1.5" fill="none" stroke-dasharray="1.5 7"></path></g></g><mask></mask><g stroke-linecap="round"><g transform="translate(367.26351626940345 333.8996414083796) rotate(0 79.0212719722557 -81.64723947238281)"><path d="M-0.05 1.05 C26.27 -26, 130.2 -133.59, 156.56 -160.4 M-3.52 -0.84 C23.75 -28.85, 135.01 -137.16, 161.56 -164.35" stroke="#000000" stroke-width="1" fill="none"></path></g><g transform="translate(367.26351626940345 333.8996414083796) rotate(0 79.0212719722557 -81.64723947238281)"><path d="M150.32 -140.89 C154.46 -145.53, 158.5 -154.35, 161.79 -162.13 M148.23 -136.47 C152.78 -148.2, 158.74 -158.38, 162.2 -165.23" stroke="#000000" stroke-width="1" fill="none"></path></g><g transform="translate(367.26351626940345 333.8996414083796) rotate(0 79.0212719722557 -81.64723947238281)"><path d="M135.84 -155.43 C143.85 -156.39, 151.55 -161.53, 161.79 -162.13 M133.75 -151.02 C143.77 -157.23, 155.2 -161.92, 162.2 -165.23" stroke="#000000" stroke-width="1" fill="none"></path></g></g><mask></mask><g stroke-linecap="round"><g transform="translate(360.19191947559716 340.6539988474776) rotate(0 38.715293121213904 207.86864229108124)"><path d="M2.72 -1.48 C14.51 67.08, 59.95 344.61, 71.54 413.39 M0.76 3.89 C13.32 72.78, 65.2 348.98, 76.67 417.22" stroke="#000000" stroke-width="1" fill="none"></path></g><g transform="translate(360.19191947559716 340.6539988474776) rotate(0 38.715293121213904 207.86864229108124)"><path d="M59.49 387.95 C67.46 397.23, 69.29 409.94, 78.12 416.79 M61.64 389.4 C67.4 398.84, 71.21 406.87, 75.06 418.12" stroke="#000000" stroke-width="1" fill="none"></path></g><g transform="translate(360.19191947559716 340.6539988474776) rotate(0 38.715293121213904 207.86864229108124)"><path d="M79.68 384.32 C81.06 395.19, 76.24 409.09, 78.12 416.79 M81.84 385.77 C81.94 396.01, 80.08 405.05, 75.06 418.12" stroke="#000000" stroke-width="1" fill="none"></path></g></g><mask></mask><g stroke-linecap="round"><g transform="translate(741.4224036263406 512.2320776881975) rotate(0 32.91924911352294 184.35097997097955)"><path d="M2.62 1.01 C13.87 62.23, 55.18 308.56, 65.24 369.61 M0.6 -0.91 C11.66 59.4, 51.56 304.15, 62.86 366.08" stroke="#000000" stroke-width="1" fill="none"></path></g><g transform="translate(741.4224036263406 512.2320776881975) rotate(0 32.91924911352294 184.35097997097955)"><path d="M49.42 339.67 C55.55 341.88, 55.53 350.45, 64.24 363.66 M48.09 340.3 C52.5 348.08, 60.99 361.43, 64.41 366.25" stroke="#000000" stroke-width="1" fill="none"></path></g><g transform="translate(741.4224036263406 512.2320776881975) rotate(0 32.91924911352294 184.35097997097955)"><path d="M69.64 336.2 C71.39 339.55, 66.93 348.88, 64.24 363.66 M68.31 336.83 C65.17 345.91, 66.1 360.55, 64.41 366.25" stroke="#000000" stroke-width="1" fill="none"></path></g></g><mask></mask><g stroke-linecap="round"><g transform="translate(1248.363837706052 160.0017967606492) rotate(0 34.63817589844675 247.03012957795772)"><path d="M1.68 -2.65 C13.54 79.79, 58.75 413.55, 70.12 496.71 M-0.85 2.08 C10.92 83.6, 57.4 411.4, 69.07 493.04" stroke="#000000" stroke-width="1" fill="none"></path></g><g transform="translate(1248.363837706052 160.0017967606492) rotate(0 34.63817589844675 247.03012957795772)"><path d="M51.15 469.69 C62.59 476.23, 65.77 476.96, 70.71 492.41 M54.59 466.62 C61.15 474.32, 64.07 487.44, 69.05 492.35" stroke="#000000" stroke-width="1" fill="none"></path></g><g transform="translate(1248.363837706052 160.0017967606492) rotate(0 34.63817589844675 247.03012957795772)"><path d="M71.47 466.79 C77.57 474.34, 75.38 475.84, 70.71 492.41 M74.91 463.73 C74.02 472.44, 69.53 486.61, 69.05 492.35" stroke="#000000" stroke-width="1" fill="none"></path></g></g><mask></mask><g stroke-linecap="round"><g transform="translate(1083.261976260743 759.675260529968) rotate(0 115.31771365690867 -44.44199872068566)"><path d="M-1.19 -1.9 C37.43 -16.79, 193.05 -77.23, 231.83 -92.12 M3.36 3.24 C41.73 -11.04, 192.6 -73.97, 230.43 -89.24" stroke="#000000" stroke-width="1" fill="none"></path></g><g transform="translate(1083.261976260743 759.675260529968) rotate(0 115.31771365690867 -44.44199872068566)"><path d="M205.53 -66.83 C213.43 -73.27, 221.42 -80.96, 228.02 -91.9 M207.24 -67.45 C213.45 -75.08, 223.32 -80.05, 231.2 -90.4" stroke="#000000" stroke-width="1" fill="none"></path></g><g transform="translate(1083.261976260743 759.675260529968) rotate(0 115.31771365690867 -44.44199872068566)"><path d="M197.74 -85.81 C207.62 -86.4, 218 -88.32, 228.02 -91.9 M199.45 -86.43 C208.06 -88.12, 220.3 -87.3, 231.2 -90.4" stroke="#000000" stroke-width="1" fill="none"></path></g></g><mask></mask><g stroke-linecap="round"><g transform="translate(742.9597236827897 522.537303347432) rotate(0 286.41874681895865 69.61004823914448)"><path d="M2.34 -1.13 C98.18 22.76, 478.22 119.33, 572.67 143.43 M0.16 -4.21 C96.1 18.92, 477.5 115.79, 571.94 139.69" stroke="#000000" stroke-width="1" fill="none"></path></g><g transform="translate(742.9597236827897 522.537303347432) rotate(0 286.41874681895865 69.61004823914448)"><path d="M540.48 146.67 C551.84 140.37, 558.28 137.94, 570.01 139.37 M540.46 143.21 C552.16 142.64, 560.98 142.02, 571.53 138.7" stroke="#000000" stroke-width="1" fill="none"></path></g><g transform="translate(742.9597236827897 522.537303347432) rotate(0 286.41874681895865 69.61004823914448)"><path d="M545.52 126.78 C555.81 124.83, 561.18 126.66, 570.01 139.37 M545.5 123.32 C555.85 129.15, 563.04 134.96, 571.53 138.7" stroke="#000000" stroke-width="1" fill="none"></path></g></g><mask></mask><g stroke-linecap="round"><g transform="translate(367.2879628352266 339.4313465353481) rotate(0 222.5955285211955 276.7451906214038)"><path d="M-2.37 2.21 C71.9 94.02, 372.74 461.56, 447.56 552.54 M1.53 0.95 C75.4 91.82, 372.23 457.16, 446.16 548.66" stroke="#000000" stroke-width="1" fill="none"></path></g><g transform="translate(367.2879628352266 339.4313465353481) rotate(0 222.5955285211955 276.7451906214038)"><path d="M423.6 535.42 C433.09 540.17, 436.24 548.95, 445.94 548.59 M420.03 532.19 C426.98 535.8, 431.18 540.81, 447.08 550.57" stroke="#000000" stroke-width="1" fill="none"></path></g><g transform="translate(367.2879628352266 339.4313465353481) rotate(0 222.5955285211955 276.7451906214038)"><path d="M439.54 522.5 C443.3 531.74, 440.57 545.29, 445.94 548.59 M435.98 519.26 C439.76 525.54, 440.73 533.17, 447.08 550.57" stroke="#000000" stroke-width="1" fill="none"></path></g></g><mask></mask><g stroke-linecap="round"><g transform="translate(368.122458750468 332.81909563854526) rotate(0 468.7288914477587 164.385726583829)"><path d="M-0.35 -1.58 C156.52 52.54, 784.76 272.28, 941.44 327.39 M-3.98 3.73 C152.66 59.42, 783.23 275.56, 940.24 330.35" stroke="#000000" stroke-width="1" fill="none"></path></g><g transform="translate(368.122458750468 332.81909563854526) rotate(0 468.7288914477587 164.385726583829)"><path d="M907.98 333.57 C917.74 331.05, 929.45 334.06, 943.6 333.98 M908.36 330.79 C921.22 329.58, 933.45 330.14, 940.22 328.58" stroke="#000000" stroke-width="1" fill="none"></path></g><g transform="translate(368.122458750468 332.81909563854526) rotate(0 468.7288914477587 164.385726583829)"><path d="M914.69 314.18 C922.74 317.64, 932.38 326.64, 943.6 333.98 M915.06 311.4 C925.47 317.11, 935.29 324.64, 940.22 328.58" stroke="#000000" stroke-width="1" fill="none"></path></g></g><mask></mask></svg>