<svg version="1.1" xmlns="http://www.w3.org/2000/svg" viewBox="0 0 1961.6428132659626 779.5476737962808" width="3923.285626531925" height="1559.0953475925617">
  <!-- svg-source:excalidraw -->
  
  <defs>
    <style class="style-fonts">
      @font-face {
        font-family: "Virgil";
        src: url("https://excalidraw.com/Virgil.woff2");
      }
      @font-face {
        font-family: "Cascadia";
        src: url("https://excalidraw.com/Cascadia.woff2");
      }
    </style>
  </defs>
  <rect x="0" y="0" width="1961.6428132659626" height="779.5476737962808" fill="#ffffff"></rect><g stroke-linecap="round" transform="translate(383.7220284608809 124.54908075836101) rotate(0 40 39)"><path d="M57.66 4.61 C63.9 6.69, 69.28 11.69, 72.87 17.34 C76.47 22.99, 79.2 31.31, 79.24 38.54 C79.28 45.76, 77 54.57, 73.11 60.7 C69.22 66.84, 62.55 72.5, 55.89 75.36 C49.23 78.22, 40.18 78.99, 33.14 77.86 C26.09 76.74, 19.01 73.25, 13.63 68.59 C8.25 63.93, 2.84 56.84, 0.88 49.92 C-1.08 43, -0.25 33.9, 1.87 27.05 C3.99 20.2, 8.27 13.12, 13.62 8.81 C18.97 4.5, 26 1.53, 33.98 1.19 C41.95 0.86, 56.16 5.24, 61.48 6.8 C66.8 8.36, 66.3 10.1, 65.89 10.55 M33.39 -0.31 C40.2 -2.1, 49.92 0.38, 56.42 3.29 C62.92 6.19, 68.56 11.02, 72.37 17.13 C76.19 23.24, 79.07 33.05, 79.32 39.96 C79.57 46.88, 77.52 52.98, 73.86 58.63 C70.19 64.28, 64.09 70.88, 57.32 73.88 C50.55 76.89, 40.42 77.77, 33.24 76.67 C26.06 75.57, 19.31 71.59, 14.25 67.29 C9.19 63, 5.07 57.57, 2.86 50.89 C0.65 44.21, -0.67 33.87, 1 27.2 C2.67 20.54, 7.12 15.6, 12.86 10.91 C18.59 6.22, 31.63 0.68, 35.41 -0.93 C39.19 -2.55, 35.47 0.11, 35.54 1.22" stroke="#000000" stroke-width="1" fill="none"></path></g><g mask="url(#mask-icMLY8sYQzMtAcz1H2dhE)" stroke-linecap="round"><g transform="translate(87.53687477559401 355.1126081755492) rotate(0 209.7537811280497 -14.423352794758557)"><path d="M-0.78 0.42 C69.44 -4.37, 350.19 -22.69, 420.29 -27.61 M1.01 -0.41 C71.19 -5.02, 349.85 -24.66, 419.51 -29.27" stroke="#000000" stroke-width="1" fill="none"></path></g><g transform="translate(87.53687477559401 355.1126081755492) rotate(0 209.7537811280497 -14.423352794758557)"><path d="M392.78 -16.57 C399.27 -19.76, 402.7 -23.23, 421.25 -30.8 M391.69 -16.58 C401.29 -21.23, 411.24 -25.4, 418.72 -28.49" stroke="#000000" stroke-width="1" fill="none"></path></g><g transform="translate(87.53687477559401 355.1126081755492) rotate(0 209.7537811280497 -14.423352794758557)"><path d="M391.38 -37.05 C398.37 -35.87, 402.09 -34.98, 421.25 -30.8 M390.29 -37.05 C400.23 -34.89, 410.65 -32.23, 418.72 -28.49" stroke="#000000" stroke-width="1" fill="none"></path></g></g><mask id="mask-icMLY8sYQzMtAcz1H2dhE"><rect x="0" y="0" fill="#fff" width="607.5089374313725" height="483.6012139423474"></rect><rect x="251.1549251464519" y="318.36830529214967" fill="#000" width="92.7359619140625" height="45" opacity="1"></rect></mask><g mask="url(#mask-o6WInioAtKgXVKML4MDHk)" stroke-linecap="round"><g transform="translate(472.97745759942495 153.34450041461514) rotate(0 173.09138661868525 -51.90017052513576)"><path d="M-0.47 0.57 C57.19 -16.71, 288.64 -86.97, 346.65 -104.37 M1.49 -0.18 C58.92 -17.28, 288.02 -86.24, 345.65 -103.33" stroke="#000000" stroke-width="1" fill="none"></path></g><g transform="translate(472.97745759942495 153.34450041461514) rotate(0 173.09138661868525 -51.90017052513576)"><path d="M322.53 -85.59 C328.7 -90.34, 338.23 -97.72, 345.28 -104.19 M321.78 -86.35 C329.54 -91.06, 336.64 -97.31, 346.51 -103.8" stroke="#000000" stroke-width="1" fill="none"></path></g><g transform="translate(472.97745759942495 153.34450041461514) rotate(0 173.09138661868525 -51.90017052513576)"><path d="M316.65 -105.25 C324.81 -102.94, 336.44 -103.29, 345.28 -104.19 M315.9 -106.01 C325.5 -104.27, 334.53 -104.06, 346.51 -103.8" stroke="#000000" stroke-width="1" fill="none"></path></g></g><mask id="mask-o6WInioAtKgXVKML4MDHk"><rect x="0" y="0" fill="#fff" width="919.7234094915557" height="356.74799753902334"></rect><rect x="602.6284563116035" y="79.1427518524115" fill="#000" width="87.44395446777344" height="45" opacity="1"></rect></mask><g transform="translate(602.6284563116035 79.14275185241104) rotate(0 43.440387906506714 22.30157803706834)"><text x="43.72197723388672" y="0" font-family="Virgil, Segoe UI Emoji" font-size="36px" fill="#000000" text-anchor="middle" style="white-space: pre;" direction="ltr" dominant-baseline="text-before-edge">-250</text></g><g transform="translate(39.27172850839747 321.3346226816175) rotate(0 10.944000244140625 22.5)"><text x="10.944000244140625" y="0" font-family="Virgil, Segoe UI Emoji" font-size="36px" fill="#000000" text-anchor="middle" style="white-space: pre;" direction="ltr" dominant-baseline="text-before-edge">S</text></g><g mask="url(#mask-qlwRLS6iGltFsZJrf3heF)" stroke-linecap="round"><g transform="translate(99.85483710473409 345.85543690911163) rotate(0 135.97737718614178 -88.91215248098433)"><path d="M-1.09 -0.03 C44.53 -29.82, 227.46 -148.16, 273.05 -177.8 M0.53 -1.09 C46.02 -30.84, 226.16 -147.4, 271.87 -176.71" stroke="#000000" stroke-width="1" fill="none"></path></g><g transform="translate(99.85483710473409 345.85543690911163) rotate(0 135.97737718614178 -88.91215248098433)"><path d="M253.69 -153.54 C256.5 -160.2, 260.85 -165.31, 272.59 -178.46 M254.33 -153.78 C259.15 -159.76, 262.57 -165.14, 270.95 -176.87" stroke="#000000" stroke-width="1" fill="none"></path></g><g transform="translate(99.85483710473409 345.85543690911163) rotate(0 135.97737718614178 -88.91215248098433)"><path d="M242.57 -170.79 C248.21 -173.17, 255.25 -174.11, 272.59 -178.46 M243.21 -171.02 C251.23 -172.4, 257.68 -173.07, 270.95 -176.87" stroke="#000000" stroke-width="1" fill="none"></path></g></g><mask id="mask-qlwRLS6iGltFsZJrf3heF"><rect x="0" y="0" fill="#fff" width="473.34205795193816" height="622.7905309830817"></rect><rect x="199.68046351954695" y="234.88788987212683" fill="#000" width="73.83596801757812" height="45" opacity="1"></rect></mask><g transform="translate(199.68046351954695 234.88788987212683) rotate(0 36.15175077132892 22.055394556000465)"><text x="36.91798400878906" y="0" font-family="Virgil, Segoe UI Emoji" font-size="36px" fill="#000000" text-anchor="middle" style="white-space: pre;" direction="ltr" dominant-baseline="text-before-edge">-310</text></g><g mask="url(#mask-Qzu860efU_xFZIF_TJt9n)" stroke-linecap="round"><g transform="translate(420.73399923253737 210.64801233748904) rotate(0 189.91091167706247 186.26687692523024)"><path d="M0.65 0 C7.52 53.23, -22.16 256.57, 40.72 318.65 C103.6 380.74, 321.76 363.42, 377.93 372.5 M-0.47 -1.04 C6.82 52.41, -20.47 257.49, 43 319.93 C106.46 382.36, 324.6 364.5, 380.33 373.57" stroke="#000000" stroke-width="1" fill="none"></path></g><g transform="translate(420.73399923253737 210.64801233748904) rotate(0 189.91091167706247 186.26687692523024)"><path d="M351.72 381.18 C358.33 378.55, 365.79 375.93, 380.66 375.1 M352.52 383.48 C362.96 379.99, 373.16 376.46, 379.9 373.54" stroke="#000000" stroke-width="1" fill="none"></path></g><g transform="translate(420.73399923253737 210.64801233748904) rotate(0 189.91091167706247 186.26687692523024)"><path d="M352.63 360.68 C358.88 363.36, 366.1 366.03, 380.66 375.1 M353.43 362.98 C363.57 366.96, 373.44 370.91, 379.9 373.54" stroke="#000000" stroke-width="1" fill="none"></path></g></g><mask id="mask-Qzu860efU_xFZIF_TJt9n"><rect x="0" y="0" fill="#fff" width="899.5854651168634" height="683.6197137549436"></rect><rect x="417.4421033765914" y="507.3038376017944" fill="#000" width="89.71195983886719" height="45" opacity="1"></rect></mask><g transform="translate(417.4421033765914 507.30383760179484) rotate(0 193.20280753300847 -110.38894833907557)"><text x="44.855979919433594" y="0" font-family="Virgil, Segoe UI Emoji" font-size="36px" fill="#000000" text-anchor="middle" style="white-space: pre;" direction="ltr" dominant-baseline="text-before-edge">-230</text></g><g stroke-linecap="round" transform="translate(1480.8896484079876 437.91603558457336) rotate(0 40 39)"><path d="M22.46 4.64 C28.53 1.21, 37.89 -1.14, 45.09 -0.26 C52.29 0.62, 60.27 5.32, 65.67 9.94 C71.08 14.55, 75.37 20.78, 77.53 27.45 C79.68 34.12, 80.26 43.17, 78.58 49.94 C76.91 56.72, 73.02 63.67, 67.47 68.1 C61.92 72.53, 52.66 75.32, 45.28 76.54 C37.89 77.76, 29.7 78.16, 23.17 75.43 C16.64 72.7, 10.08 66.26, 6.1 60.14 C2.13 54.01, -0.74 45.53, -0.68 38.66 C-0.62 31.8, 1.05 25.11, 6.46 18.94 C11.87 12.78, 26.15 4.65, 31.78 1.68 C37.41 -1.29, 40.31 0.55, 40.24 1.14 M27.18 1.77 C33.5 -0.8, 43.49 0.92, 50.28 2.48 C57.07 4.04, 63.18 6.45, 67.92 11.12 C72.65 15.79, 77.19 23.59, 78.7 30.5 C80.21 37.41, 79.44 45.9, 76.99 52.55 C74.55 59.2, 69.99 66.28, 64.05 70.41 C58.11 74.55, 48.81 76.98, 41.35 77.36 C33.9 77.74, 25.25 76.23, 19.31 72.68 C13.36 69.13, 8.65 62.46, 5.67 56.07 C2.68 49.67, 1.06 40.93, 1.4 34.31 C1.73 27.69, 3.49 21.52, 7.69 16.33 C11.9 11.15, 23.36 5.5, 26.63 3.19 C29.9 0.89, 27.03 1.85, 27.32 2.49" stroke="#000000" stroke-width="1" fill="none"></path></g><g stroke-linecap="round" transform="translate(799.725621821628 568.1811449111692) rotate(0 40 39)"><path d="M57.47 4.71 C63.77 7.24, 69.76 12.76, 73.52 18.72 C77.29 24.69, 79.98 33.46, 80.05 40.5 C80.12 47.53, 78.17 55.36, 73.94 60.93 C69.72 66.5, 61.6 71.04, 54.7 73.92 C47.81 76.8, 39.6 79.28, 32.56 78.19 C25.52 77.11, 17.78 72.42, 12.46 67.41 C7.14 62.4, 2.33 54.77, 0.64 48.13 C-1.05 41.5, -0.13 34.04, 2.32 27.61 C4.77 21.17, 9.72 14.03, 15.33 9.54 C20.93 5.04, 28.58 1.25, 35.94 0.62 C43.3 -0.01, 55.23 4.54, 59.48 5.75 C63.74 6.96, 61.61 7.37, 61.45 7.89 M33.9 -0.64 C40.38 -2.45, 49.95 -0.35, 56.6 2.68 C63.26 5.7, 69.8 11.4, 73.83 17.49 C77.87 23.59, 81.01 32.17, 80.83 39.26 C80.65 46.34, 76.99 54.1, 72.74 60 C68.5 65.89, 61.65 71.83, 55.34 74.61 C49.04 77.4, 41.7 77.95, 34.91 76.69 C28.11 75.44, 20.28 71.39, 14.56 67.08 C8.84 62.77, 2.77 57.27, 0.6 50.84 C-1.58 44.4, -0.78 35.5, 1.53 28.48 C3.83 21.46, 8.84 13.23, 14.43 8.74 C20.02 4.25, 31.88 2.82, 35.08 1.55 C38.28 0.29, 33.48 0.82, 33.63 1.17" stroke="#000000" stroke-width="1" fill="none"></path></g><g stroke-linecap="round" transform="translate(1159.4827600767503 691.5476737962808) rotate(0 40 39)"><path d="M54.2 2.94 C61.08 4.79, 68.89 10.3, 73.03 15.7 C77.16 21.11, 78.78 28.24, 79.01 35.39 C79.23 42.54, 77.78 52.33, 74.37 58.59 C70.95 64.85, 64.85 69.88, 58.5 72.96 C52.16 76.04, 43.34 77.44, 36.3 77.07 C29.26 76.7, 21.8 74.73, 16.27 70.74 C10.74 66.76, 5.6 59.82, 3.14 53.18 C0.67 46.54, 0.15 37.82, 1.49 30.91 C2.83 24.01, 6.26 16.69, 11.18 11.76 C16.1 6.82, 23.28 2.61, 31 1.3 C38.71 0, 52.75 3.07, 57.46 3.92 C62.17 4.78, 59.47 5.99, 59.27 6.44 M27.3 1.04 C33.86 -1.45, 43.89 -0.92, 50.81 0.89 C57.72 2.7, 64.12 6.7, 68.76 11.89 C73.41 17.08, 77.11 25.17, 78.67 32.05 C80.23 38.93, 80.59 46.84, 78.13 53.18 C75.68 59.52, 70.24 65.71, 63.96 70.08 C57.69 74.46, 47.94 78.83, 40.49 79.41 C33.04 79.98, 25.27 77.45, 19.25 73.54 C13.22 69.64, 7.49 62.25, 4.35 55.99 C1.21 49.73, -0.13 42.9, 0.4 35.99 C0.93 29.08, 2.91 20.3, 7.51 14.54 C12.12 8.79, 24.83 3.48, 28.01 1.44 C31.18 -0.59, 26.57 1.83, 26.55 2.33" stroke="#000000" stroke-width="1" fill="none"></path></g><g stroke-linecap="round" transform="translate(514.3767021598319 281.58453498883046) rotate(0 40 39)"><path d="M33.37 1.22 C40.24 -0.23, 49.39 1.05, 56.07 3.71 C62.75 6.37, 69.57 11.46, 73.45 17.2 C77.32 22.94, 79.28 31.11, 79.32 38.15 C79.36 45.19, 77.21 53.43, 73.68 59.43 C70.16 65.42, 64.58 70.95, 58.19 74.1 C51.81 77.25, 42.45 79.26, 35.37 78.34 C28.3 77.43, 21.42 73.21, 15.75 68.63 C10.08 64.04, 3.91 57.42, 1.38 50.84 C-1.16 44.27, -1.27 35.82, 0.53 29.17 C2.33 22.52, 6.26 15.84, 12.19 10.95 C18.13 6.05, 31.62 1.55, 36.15 -0.22 C40.69 -1.99, 39.32 -0.54, 39.41 0.31 M28.36 2.88 C34.55 0.89, 44.42 1, 51.48 2.76 C58.53 4.53, 65.98 8.04, 70.71 13.44 C75.43 18.84, 79.14 28.12, 79.82 35.17 C80.5 42.22, 77.79 49.66, 74.78 55.72 C71.77 61.78, 67.83 67.89, 61.76 71.54 C55.69 75.19, 45.79 77.82, 38.35 77.62 C30.91 77.42, 23.18 74.32, 17.14 70.33 C11.1 66.34, 5.04 59.77, 2.09 53.69 C-0.85 47.62, -1.83 40.46, -0.52 33.88 C0.79 27.3, 4.98 19.84, 9.97 14.22 C14.95 8.6, 26.05 1.97, 29.4 0.17 C32.75 -1.63, 30.12 2.79, 30.04 3.42" stroke="#000000" stroke-width="1" fill="none"></path></g><g mask="url(#mask-nJxoAzZ1A7QRBy8OCzpzW)" stroke-linecap="round"><g transform="translate(600.1538044938927 346.6496611923021) rotate(0 288.1182806143102 175.1525883663303)"><path d="M0.35 -0.94 C46.43 14.68, 179.32 36.42, 275.46 94.91 C371.59 153.4, 527.07 307.62, 577.16 349.99 M-0.92 1.19 C45.59 16.99, 181.3 34.91, 277.55 93.25 C373.8 151.6, 526.88 308.5, 576.6 351.24" stroke="#000000" stroke-width="1" fill="none"></path></g><g transform="translate(600.1538044938927 346.6496611923021) rotate(0 288.1182806143102 175.1525883663303)"><path d="M547.4 337.59 C556.59 342.68, 560.93 343.29, 574.93 349.41 M548.06 340.34 C559.79 343.32, 570.13 348.19, 577.13 350.53" stroke="#000000" stroke-width="1" fill="none"></path></g><g transform="translate(600.1538044938927 346.6496611923021) rotate(0 288.1182806143102 175.1525883663303)"><path d="M561.38 322.56 C567.67 330.97, 568.96 334.86, 574.93 349.41 M562.04 325.31 C568.13 334.24, 572.97 345.03, 577.13 350.53" stroke="#000000" stroke-width="1" fill="none"></path></g></g><mask id="mask-nJxoAzZ1A7QRBy8OCzpzW"><rect x="0" y="0" fill="#fff" width="1276.9149505514263" height="796.7566569761693"></rect><rect x="833.2334040355081" y="418.1651010665446" fill="#000" width="87.11996459960938" height="45" opacity="1"></rect></mask><g transform="translate(833.2334040355081 418.1651010665446) rotate(0 55.03868107269483 103.63714849208782)"><text x="43.55998229980469" y="0" font-family="Virgil, Segoe UI Emoji" font-size="36px" fill="#000000" text-anchor="middle" style="white-space: pre;" direction="ltr" dominant-baseline="text-before-edge">-290</text></g><g mask="url(#mask-qUyD1Y9A5-1jXpC2BAr6t)" stroke-linecap="round"><g transform="translate(884.8313443634165 608.9150196422734) rotate(0 294.1273067208589 -62.207290249647485)"><path d="M-0.83 -0.98 C97.17 -21.63, 490.7 -103.22, 589.08 -124.03 M0.94 1.12 C98.64 -19.82, 489.95 -104.53, 587.9 -125.53" stroke="#000000" stroke-width="1" fill="none"></path></g><g transform="translate(884.8313443634165 608.9150196422734) rotate(0 294.1273067208589 -62.207290249647485)"><path d="M560.87 -110.3 C574.5 -115.83, 581.4 -121.55, 588.29 -127.03 M562.67 -109.21 C570.74 -114.5, 578.91 -119.48, 588.15 -125.47" stroke="#000000" stroke-width="1" fill="none"></path></g><g transform="translate(884.8313443634165 608.9150196422734) rotate(0 294.1273067208589 -62.207290249647485)"><path d="M556.54 -130.36 C571.85 -127.97, 580.46 -125.79, 588.29 -127.03 M558.35 -129.27 C567.84 -128.32, 577.34 -127.08, 588.15 -125.47" stroke="#000000" stroke-width="1" fill="none"></path></g></g><mask id="mask-qUyD1Y9A5-1jXpC2BAr6t"><rect x="0" y="0" fill="#fff" width="1574.3576735854817" height="834.1379608810303"></rect><rect x="1145.2505224632187" y="523.8035490228949" fill="#000" width="68.68797302246094" height="45" opacity="1"></rect></mask><g transform="translate(1145.2505224632187 523.8035490228949) rotate(0 33.708128621056744 22.904180369730966)"><text x="34.34398651123047" y="0" font-family="Virgil, Segoe UI Emoji" font-size="36px" fill="#000000" text-anchor="middle" style="white-space: pre;" direction="ltr" dominant-baseline="text-before-edge">-170</text></g><g mask="url(#mask-RWmrKLgKir5LkTQp4qE3o)" stroke-linecap="round"><g transform="translate(607.0517736500763 322.13028714738266) rotate(0 430.4551884141509 70.3460292818072)"><path d="M0.7 0.43 C144.19 23.98, 717.85 117.61, 861.3 141.08 M-0.39 -0.39 C142.98 22.87, 717.2 116.19, 860.78 139.51" stroke="#000000" stroke-width="1" fill="none"></path></g><g transform="translate(607.0517736500763 322.13028714738266) rotate(0 430.4551884141509 70.3460292818072)"><path d="M832.03 146.47 C842.78 144.58, 852.72 140.08, 860.01 140.61 M832.15 145.51 C839.44 143.8, 847.94 142.87, 860.54 139.75" stroke="#000000" stroke-width="1" fill="none"></path></g><g transform="translate(607.0517736500763 322.13028714738266) rotate(0 430.4551884141509 70.3460292818072)"><path d="M835.32 126.22 C844.95 131.02, 853.81 133.2, 860.01 140.61 M835.44 125.25 C842.01 129.09, 849.61 133.69, 860.54 139.75" stroke="#000000" stroke-width="1" fill="none"></path></g></g><mask id="mask-RWmrKLgKir5LkTQp4qE3o"><rect x="0" y="0" fill="#fff" width="1567.5356347203406" height="562.1601894795931"></rect><rect x="1002.949717673978" y="369.6452383134874" fill="#000" width="68.68797302246094" height="45" opacity="1"></rect></mask><g transform="translate(1002.949717673978 369.6452383134874) rotate(0 34.557244390249195 22.83107811570244)"><text x="34.34398651123047" y="0" font-family="Virgil, Segoe UI Emoji" font-size="36px" fill="#000000" text-anchor="middle" style="white-space: pre;" direction="ltr" dominant-baseline="text-before-edge">-170</text></g><g transform="translate(251.1549251464519 318.36830529214967) rotate(0 46.13573075719182 22.320950088640984)"><text x="46.36798095703125" y="0" font-family="Virgil, Segoe UI Emoji" font-size="36px" fill="#000000" text-anchor="middle" style="white-space: pre;" direction="ltr" dominant-baseline="text-before-edge">-280</text></g><g transform="translate(1507.0653838743929 454.338871118297) rotate(0 14.039993286132812 22.5)"><text x="14.039993286132812" y="0" font-family="Virgil, Segoe UI Emoji" font-size="36px" fill="#000000" text-anchor="middle" style="white-space: pre;" direction="ltr" dominant-baseline="text-before-edge">D</text></g><g transform="translate(827.809354419381 584.6039804448947) rotate(0 12.131996154785156 22.5)"><text x="12.131996154785156" y="0" font-family="Virgil, Segoe UI Emoji" font-size="36px" fill="#000000" text-anchor="middle" style="white-space: pre;" direction="ltr" dominant-baseline="text-before-edge">E</text></g><g transform="translate(1189.3664957262613 707.9705093300045) rotate(0 10.331993103027344 22.5)"><text x="10.331993103027344" y="0" font-family="Virgil, Segoe UI Emoji" font-size="36px" fill="#000000" text-anchor="middle" style="white-space: pre;" direction="ltr" dominant-baseline="text-before-edge">F</text></g><g stroke-linecap="round" transform="translate(829.155635444723 10) rotate(0 40 39)"><path d="M47.41 -0.14 C53.97 0.85, 62.3 7, 67.49 12.05 C72.67 17.1, 76.96 23.58, 78.53 30.17 C80.09 36.77, 79.2 44.88, 76.87 51.64 C74.53 58.39, 70.02 66.24, 64.5 70.73 C58.98 75.22, 50.88 78.1, 43.72 78.59 C36.56 79.08, 28.1 77.06, 21.53 73.68 C14.97 70.3, 8.01 64.44, 4.33 58.3 C0.64 52.16, -1.23 43.91, -0.58 36.85 C0.07 29.79, 3.88 21.59, 8.24 15.96 C12.6 10.34, 18.01 5.54, 25.59 3.1 C33.16 0.67, 48.61 1.2, 53.69 1.36 C58.76 1.51, 56.55 3.32, 56.06 4.04 M27.21 1.27 C33.3 -1.25, 42.34 -0.56, 49.6 1.21 C56.86 2.98, 65.6 6.87, 70.78 11.91 C75.95 16.96, 79.79 24.19, 80.65 31.49 C81.51 38.79, 79.01 48.94, 75.93 55.74 C72.86 62.54, 67.98 68.67, 62.19 72.32 C56.39 75.96, 48.29 77.39, 41.15 77.59 C34.02 77.8, 25.8 77.13, 19.38 73.56 C12.96 69.99, 5.74 62.77, 2.65 56.16 C-0.44 49.55, -0.05 40.94, 0.84 33.89 C1.73 26.83, 3.62 19.37, 7.98 13.83 C12.33 8.29, 23.84 2.7, 26.96 0.66 C30.08 -1.39, 26.53 0.57, 26.71 1.55" stroke="#000000" stroke-width="1" fill="none"></path></g><g transform="translate(857.5633655400345 26.422835533724992) rotate(0 11.807998657226562 22.5)"><text x="11.807998657226562" y="0" font-family="Virgil, Segoe UI Emoji" font-size="36px" fill="#000000" text-anchor="middle" style="white-space: pre;" direction="ltr" dominant-baseline="text-before-edge">A</text></g><g transform="translate(410.85175867826274 140.971916292086) rotate(0 13.08599853515625 22.5)"><text x="13.08599853515625" y="0" font-family="Virgil, Segoe UI Emoji" font-size="36px" fill="#000000" text-anchor="middle" style="white-space: pre;" direction="ltr" dominant-baseline="text-before-edge">B</text></g><g transform="translate(543.0004356731122 298.0073705225559) rotate(0 11.591995239257812 22.5)"><text x="11.591995239257812" y="0" font-family="Virgil, Segoe UI Emoji" font-size="36px" fill="#000000" text-anchor="middle" style="white-space: pre;" direction="ltr" dominant-baseline="text-before-edge">C</text></g><g stroke-linecap="round" transform="translate(10 304.91178714789294) rotate(0 40 39)"><path d="M38.71 0.14 C45.79 -0.54, 55.66 2.28, 61.85 6.09 C68.03 9.89, 72.83 16.64, 75.82 22.95 C78.82 29.26, 80.61 37.05, 79.83 43.95 C79.04 50.85, 75.74 58.84, 71.09 64.36 C66.44 69.88, 58.87 75.13, 51.9 77.07 C44.94 79.02, 36.32 78.07, 29.31 76.03 C22.31 73.99, 14.76 69.81, 9.87 64.81 C4.99 59.82, 1.2 52.91, 0 46.06 C-1.2 39.21, -0.17 30.32, 2.66 23.7 C5.49 17.07, 10.42 10.19, 17 6.29 C23.58 2.4, 37.51 1.22, 42.14 0.31 C46.76 -0.6, 44.95 0.19, 44.76 0.81 M54.29 2.04 C60.95 3.66, 69.37 10.07, 73.49 15.68 C77.61 21.29, 78.54 28.63, 79.01 35.7 C79.47 42.77, 79.39 51.84, 76.29 58.07 C73.19 64.31, 67.19 69.86, 60.43 73.1 C53.66 76.35, 43.09 77.88, 35.68 77.55 C28.27 77.22, 21.3 75.4, 15.98 71.13 C10.65 66.86, 6.09 58.52, 3.72 51.92 C1.34 45.31, 0.52 38.46, 1.74 31.5 C2.95 24.55, 5.87 15.49, 10.99 10.17 C16.11 4.86, 25.08 1.16, 32.47 -0.37 C39.86 -1.9, 51.63 0.22, 55.33 0.98 C59.03 1.73, 54.87 3.29, 54.66 4.16" stroke="#000000" stroke-width="1" fill="none"></path></g><g mask="url(#mask-ggPrqlRXzxrqkg46uEOiV)" stroke-linecap="round"><g transform="translate(63.184208362708205 384.9913050785208) rotate(0 542.0721178863973 171.71651463744502)"><path d="M-0.05 -0.18 C79.05 49.78, 294.15 242.18, 475.1 299.47 C656.05 356.75, 983.71 336.3, 1085.68 343.53 M-1.53 -1.33 C77.37 48.89, 293.17 243.39, 474.19 301.07 C655.2 358.75, 982.37 337.69, 1084.57 344.76" stroke="#000000" stroke-width="1" fill="none"></path></g><g transform="translate(63.184208362708205 384.9913050785208) rotate(0 542.0721178863973 171.71651463744502)"><path d="M1055.96 354.8 C1066.18 350.23, 1075.4 348.82, 1083.13 345.82 M1055.61 355.37 C1062.82 353.57, 1068.64 350.59, 1084.51 345.68" stroke="#000000" stroke-width="1" fill="none"></path></g><g transform="translate(63.184208362708205 384.9913050785208) rotate(0 542.0721178863973 171.71651463744502)"><path d="M1056.19 334.28 C1066.28 336.73, 1075.42 342.35, 1083.13 345.82 M1055.85 334.85 C1062.83 337.23, 1068.6 338.43, 1084.51 345.68" stroke="#000000" stroke-width="1" fill="none"></path></g></g><mask id="mask-ggPrqlRXzxrqkg46uEOiV"><rect x="0" y="0" fill="#fff" width="1249.5050887614645" height="828.6862943026954"></rect><rect x="494.6598336806326" y="661.8406162798583" fill="#000" width="87.11996459960938" height="45" opacity="1"></rect></mask><g transform="translate(494.6598336806326 661.8406162798583) rotate(0 110.59649256847297 -105.1327965638925)"><text x="43.55998229980469" y="0" font-family="Virgil, Segoe UI Emoji" font-size="36px" fill="#000000" text-anchor="middle" style="white-space: pre;" direction="ltr" dominant-baseline="text-before-edge">-290</text></g><g mask="url(#mask-MISkAI9Z4P50XoG17UuAW)" stroke-linecap="round"><g transform="translate(915.6173615143116 60.02275351456774) rotate(0 283.2908805749133 195.78961371682612)"><path d="M-1.03 -0.05 C57.25 42.15, 255.59 187.97, 350.37 253.23 C445.14 318.49, 531.52 368.58, 567.61 391.51 M0.63 -1.13 C58.68 40.74, 254.87 185.89, 349.31 251.53 C443.76 317.17, 530.97 369.39, 567.29 392.71" stroke="#000000" stroke-width="1" fill="none"></path></g><g transform="translate(915.6173615143116 60.02275351456774) rotate(0 283.2908805749133 195.78961371682612)"><path d="M537.87 386.09 C549.67 390.31, 558.32 391.4, 565.8 391.87 M537.27 386.54 C549.86 389.11, 559.61 391.67, 568.15 393.53" stroke="#000000" stroke-width="1" fill="none"></path></g><g transform="translate(915.6173615143116 60.02275351456774) rotate(0 283.2908805749133 195.78961371682612)"><path d="M548.77 368.71 C556.71 378.98, 561.51 386.21, 565.8 391.87 M548.17 369.15 C556.53 378.37, 562.17 387.49, 568.15 393.53" stroke="#000000" stroke-width="1" fill="none"></path></g></g><mask id="mask-MISkAI9Z4P50XoG17UuAW"><rect x="0" y="0" fill="#fff" width="1582.3841836979532" height="551.7588720795093"></rect><rect x="1231.8395767328566" y="289.95158605777124" fill="#000" width="68.68797302246094" height="45" opacity="1"></rect></mask><g transform="translate(1231.8395767328566 289.95158605777124) rotate(0 -32.931334643631715 -34.13921882637737)"><text x="34.34398651123047" y="0" font-family="Virgil, Segoe UI Emoji" font-size="36px" fill="#000000" text-anchor="middle" style="white-space: pre;" direction="ltr" dominant-baseline="text-before-edge">-170</text></g><g mask="url(#mask-A039zNhDFuUixSLzXThVA)" stroke-linecap="round"><g transform="translate(465.5897292736372 187.4840004442226) rotate(0 499.49791965819895 140.27943645116784)"><path d="M0.38 0.45 C167.2 46.87, 833.36 232.89, 999.87 279.46 M-0.88 -0.35 C165.86 46.17, 832.29 233.96, 998.84 280.91" stroke="#000000" stroke-width="1" fill="none"></path></g><g transform="translate(465.5897292736372 187.4840004442226) rotate(0 499.49791965819895 140.27943645116784)"><path d="M969.68 282.86 C974.97 281.64, 982.06 280.89, 1000.14 282.09 M969.46 283.39 C978.63 282.07, 988.96 281.07, 998.37 281.8" stroke="#000000" stroke-width="1" fill="none"></path></g><g transform="translate(465.5897292736372 187.4840004442226) rotate(0 499.49791965819895 140.27943645116784)"><path d="M975.24 263.11 C979.52 266.1, 985.42 269.55, 1000.14 282.09 M975.03 263.64 C982.2 268.79, 990.73 274.23, 998.37 281.8" stroke="#000000" stroke-width="1" fill="none"></path></g></g><mask id="mask-A039zNhDFuUixSLzXThVA"><rect x="0" y="0" fill="#fff" width="1565.6280886049583" height="567.1189659073343"></rect><rect x="931.2649224280673" y="304.8014831757778" fill="#000" width="68.68797302246094" height="45" opacity="1"></rect></mask><g transform="translate(931.2649224280673 304.80148317577823) rotate(0 33.82272650376888 22.96195371961221)"><text x="34.34398651123047" y="0" font-family="Virgil, Segoe UI Emoji" font-size="36px" fill="#000000" text-anchor="middle" style="white-space: pre;" direction="ltr" dominant-baseline="text-before-edge">-170</text></g><g mask="url(#mask-HI-5HEp_zSOZ8Idqj7GkC)" stroke-linecap="round"><g transform="translate(82.3666956854363 348.879382565191) rotate(0 696.9430991489422 79.4623195071922)"><path d="M-0.02 0.28 C96.68 25.69, 348.09 131.69, 580.65 152.52 C813.22 173.35, 1259.62 129.7, 1395.37 125.24 M-1.49 -0.62 C95.56 24.95, 350.37 132.62, 583.01 153.81 C815.65 175, 1259.01 130.97, 1394.36 126.52" stroke="#000000" stroke-width="1" fill="none"></path></g><g transform="translate(82.3666956854363 348.879382565191) rotate(0 696.9430991489422 79.4623195071922)"><path d="M1367.32 137.38 C1375.45 133.64, 1385.5 129.23, 1395.12 128.09 M1366.22 138.11 C1372.49 136.55, 1379.02 132.85, 1394.46 127.32" stroke="#000000" stroke-width="1" fill="none"></path></g><g transform="translate(82.3666956854363 348.879382565191) rotate(0 696.9430991489422 79.4623195071922)"><path d="M1366.05 116.9 C1374.62 120.14, 1385.1 122.72, 1395.12 128.09 M1364.95 117.63 C1371.51 120.49, 1378.32 121.21, 1394.46 127.32" stroke="#000000" stroke-width="1" fill="none"></path></g></g><mask id="mask-HI-5HEp_zSOZ8Idqj7GkC"><rect x="0" y="0" fill="#fff" width="1578.211131190536" height="601.8644740295604"></rect><rect x="629.3545008043761" y="479.36447402956037" fill="#000" width="68.68797302246094" height="45" opacity="1"></rect></mask><g transform="translate(629.3545008043761 479.36447402956037) rotate(0 149.9552940300024 -51.022771957177156)"><text x="34.34398651123047" y="0" font-family="Virgil, Segoe UI Emoji" font-size="36px" fill="#000000" text-anchor="middle" style="white-space: pre;" direction="ltr" dominant-baseline="text-before-edge">-170</text></g><g transform="translate(1897.3865418964303 340.67735779219583) rotate(0 14.472000122070312 22.5)"><text x="14.472000122070312" y="0" font-family="Virgil, Segoe UI Emoji" font-size="36px" fill="#000000" text-anchor="middle" style="white-space: pre;" direction="ltr" dominant-baseline="text-before-edge">T</text></g><g stroke-linecap="round" transform="translate(1871.6428132659626 324.2545222584713) rotate(0 40 39)"><path d="M20.49 4.32 C26.25 0.41, 35.04 -1.4, 42.38 -0.7 C49.71 0, 58.53 4.03, 64.51 8.52 C70.48 13.01, 75.71 19.71, 78.22 26.26 C80.73 32.81, 81.37 41.03, 79.58 47.85 C77.79 54.66, 72.81 62.21, 67.48 67.17 C62.16 72.12, 54.52 76.18, 47.64 77.59 C40.76 79.01, 32.88 78.12, 26.21 75.66 C19.53 73.19, 11.8 68.58, 7.6 62.79 C3.4 57, 1.55 48.08, 1.01 40.9 C0.47 33.73, 0.92 25.92, 4.35 19.75 C7.78 13.59, 18.41 6.44, 21.57 3.92 C24.74 1.41, 22.96 4.14, 23.34 4.68 M33.35 -0.06 C40.27 -2.06, 49.44 -1.25, 55.8 1.69 C62.17 4.63, 67.58 11.54, 71.55 17.57 C75.53 23.61, 79.1 31.18, 79.67 37.9 C80.23 44.61, 78.43 51.71, 74.94 57.85 C71.46 64, 65.39 71.42, 58.75 74.77 C52.11 78.11, 42.22 78.84, 35.1 77.93 C27.99 77.02, 21.73 73.68, 16.07 69.31 C10.41 64.93, 3.79 58.39, 1.15 51.65 C-1.49 44.92, -1.38 35.84, 0.24 28.88 C1.86 21.92, 5.72 14.45, 10.87 9.91 C16.02 5.38, 27.59 2.89, 31.14 1.68 C34.69 0.47, 31.83 2.39, 32.16 2.66" stroke="#000000" stroke-width="1" fill="none"></path></g><g mask="url(#mask-E810njq7fB-8_6p1VPDvb)" stroke-linecap="round"><g transform="translate(916.529398123231 55.33044903137943) rotate(0 476.6523291282357 146.93478417124993)"><path d="M-0.06 -1.01 C80.26 13.31, 321.86 36.2, 481.02 85.39 C640.17 134.58, 875.97 259, 954.86 294.12 M-1.55 1.08 C78.73 15.55, 321.03 37.4, 480.26 86.36 C639.48 135.33, 874.82 260.27, 953.78 294.88" stroke="#000000" stroke-width="1" fill="none"></path></g><g transform="translate(916.529398123231 55.33044903137943) rotate(0 476.6523291282357 146.93478417124993)"><path d="M922.23 292.6 C928.73 291.65, 935.34 291.43, 955.3 293.81 M924.74 292.85 C936.56 292.45, 946.63 293.94, 954.04 294.65" stroke="#000000" stroke-width="1" fill="none"></path></g><g transform="translate(916.529398123231 55.33044903137943) rotate(0 476.6523291282357 146.93478417124993)"><path d="M931.07 274.08 C935.53 277.22, 940.19 281.11, 955.3 293.81 M933.58 274.33 C942.05 281.12, 948.65 289.89, 954.04 294.65" stroke="#000000" stroke-width="1" fill="none"></path></g></g><mask id="mask-E810njq7fB-8_6p1VPDvb"><rect x="0" y="0" fill="#fff" width="1971.990522425855" height="450.5219020038753"></rect><rect x="1384.8028264522284" y="119.29215683857319" fill="#000" width="24.767990112304688" height="45" opacity="1"></rect></mask><g transform="translate(1384.8028264522284 119.29215683857319) rotate(0 8.378900799238295 82.97307636405617)"><text x="12.383995056152344" y="0" font-family="Virgil, Segoe UI Emoji" font-size="36px" fill="#000000" text-anchor="middle" style="white-space: pre;" direction="ltr" dominant-baseline="text-before-edge">0</text></g><g mask="url(#mask-HuxhOHZbVOEroK444a6nJ)" stroke-linecap="round"><g transform="translate(470.74279864127584 166.58620358093867) rotate(0 699.2620887555578 89.79234298191113)"><path d="M0.8 0.41 C128.24 0.45, 532.33 -32.06, 765.33 0.15 C998.33 32.36, 1293.02 161.59, 1398.77 193.67 M-0.25 -0.42 C127.06 -0.26, 531.8 -30.88, 764.81 1.11 C997.82 33.11, 1291.9 159.49, 1397.84 191.54" stroke="#000000" stroke-width="1" fill="none"></path></g><g transform="translate(470.74279864127584 166.58620358093867) rotate(0 699.2620887555578 89.79234298191113)"><path d="M1368.53 193.2 C1376.62 191, 1389.74 192.66, 1396.82 189.79 M1367.46 192.5 C1376.63 191.95, 1384.36 191.71, 1397.89 191.24" stroke="#000000" stroke-width="1" fill="none"></path></g><g transform="translate(470.74279864127584 166.58620358093867) rotate(0 699.2620887555578 89.79234298191113)"><path d="M1375.36 173.85 C1381.02 178.54, 1391.73 187.04, 1396.82 189.79 M1374.29 173.15 C1381.51 177.86, 1387.4 182.84, 1397.89 191.24" stroke="#000000" stroke-width="1" fill="none"></path></g></g><mask id="mask-HuxhOHZbVOEroK444a6nJ"><rect x="0" y="0" fill="#fff" width="1969.8301889791928" height="459.84653271413754"></rect><rect x="1222.8712759140117" y="145.33875749608342" fill="#000" width="24.767990112304688" height="45" opacity="1"></rect></mask><g mask="url(#mask-ECjotC8Odk956qfEbrsm9)" stroke-linecap="round"><g transform="translate(597.3841842341528 318.55233834977935) rotate(0 636.3123647458617 -12.459481882662203)"><path d="M-1.06 -0.51 C117.11 -11.68, 495.68 -73.23, 708.13 -66.39 C920.59 -59.55, 1179.56 22.71, 1273.68 40.54 M0.59 -1.82 C118.73 -12.84, 495.43 -72.09, 707.51 -64.79 C919.58 -57.49, 1178.81 24.23, 1273.02 42" stroke="#000000" stroke-width="1" fill="none"></path></g><g transform="translate(597.3841842341528 318.55233834977935) rotate(0 636.3123647458617 -12.459481882662203)"><path d="M1242.37 46.44 C1250.12 45.24, 1257.12 43.07, 1273.52 41.64 M1242.85 45.57 C1250.28 44.52, 1256.05 43.08, 1272.06 42.52" stroke="#000000" stroke-width="1" fill="none"></path></g><g transform="translate(597.3841842341528 318.55233834977935) rotate(0 636.3123647458617 -12.459481882662203)"><path d="M1247.14 26.48 C1253.92 29.75, 1259.85 32.1, 1273.52 41.64 M1247.62 25.61 C1253.98 29.03, 1258.69 32.06, 1272.06 42.52" stroke="#000000" stroke-width="1" fill="none"></path></g></g><mask id="mask-ECjotC8Odk956qfEbrsm9"><rect x="0" y="0" fill="#fff" width="1970.8710511895652" height="525.3199306445154"></rect><rect x="1292.525997027325" y="229.55294830210732" fill="#000" width="24.767990112304688" height="45" opacity="1"></rect></mask><g transform="translate(1292.525997027325 229.55294830210732) rotate(0 -58.82944804731051 76.53990816500982)"><text x="12.383995056152344" y="0" font-family="Virgil, Segoe UI Emoji" font-size="36px" fill="#000000" text-anchor="middle" style="white-space: pre;" direction="ltr" dominant-baseline="text-before-edge">0</text></g><g mask="url(#mask-wBQdXdCv_TTot0s9Aot3I)" stroke-linecap="round"><g transform="translate(1566.2892551316006 474.3520273363147) rotate(0 149.62106987748635 -56.13278230099468)"><path d="M1.06 0.92 C50.75 -17.68, 249.59 -92.88, 299.08 -111.68 M0.16 0.36 C49.64 -18.53, 248.22 -94.17, 298.29 -113.18" stroke="#000000" stroke-width="1" fill="none"></path></g><g transform="translate(1566.2892551316006 474.3520273363147) rotate(0 149.62106987748635 -56.13278230099468)"><path d="M277.12 -93.09 C286.12 -102.4, 294.36 -109.78, 298.66 -112.15 M276.28 -93.35 C282.02 -99.55, 288.21 -105.92, 298.35 -113.57" stroke="#000000" stroke-width="1" fill="none"></path></g><g transform="translate(1566.2892551316006 474.3520273363147) rotate(0 149.62106987748635 -56.13278230099468)"><path d="M269.82 -112.27 C281.56 -114.41, 292.55 -114.55, 298.66 -112.15 M268.98 -112.53 C277.09 -112.88, 285.5 -113.43, 298.35 -113.57" stroke="#000000" stroke-width="1" fill="none"></path></g></g><mask id="mask-wBQdXdCv_TTot0s9Aot3I"><rect x="0" y="0" fill="#fff" width="1965.0836459711973" height="687.2011315345321"></rect><rect x="1703.3024554952467" y="395.4274752372057" fill="#000" width="24.767990112304688" height="45" opacity="1"></rect></mask><g transform="translate(1703.3024554952467 395.4274752372057) rotate(0 12.607869513840427 22.791769798114274)"><text x="12.383995056152344" y="0" font-family="Virgil, Segoe UI Emoji" font-size="36px" fill="#000000" text-anchor="middle" style="white-space: pre;" direction="ltr" dominant-baseline="text-before-edge">0</text></g><g mask="url(#mask--LazUIzv0lI5iHqwUqhZu)" stroke-linecap="round"><g transform="translate(1249.023773926493 726.1319155294777) rotate(0 309.2131214768956 -172.90842347272974)"><path d="M-0.96 -0.28 C73.67 -8.86, 345.31 6.01, 448.7 -51.53 C552.09 -109.08, 591.15 -296.88, 619.38 -345.54 M0.74 -1.47 C75.21 -10.39, 345.14 3.91, 448.21 -53.29 C551.28 -110.49, 590.85 -295.99, 619.19 -344.69" stroke="#000000" stroke-width="1" fill="none"></path></g><g transform="translate(1249.023773926493 726.1319155294777) rotate(0 309.2131214768956 -172.90842347272974)"><path d="M617.61 -313.26 C619.67 -324.24, 617.43 -337.76, 621.06 -345.81 M618.44 -315.63 C617.55 -322.74, 617.97 -330.82, 619.98 -345.54" stroke="#000000" stroke-width="1" fill="none"></path></g><g transform="translate(1249.023773926493 726.1319155294777) rotate(0 309.2131214768956 -172.90842347272974)"><path d="M598.6 -321 C607.85 -328.89, 612.82 -339.49, 621.06 -345.81 M599.43 -323.36 C603.75 -328.22, 609.3 -334.22, 619.98 -345.54" stroke="#000000" stroke-width="1" fill="none"></path></g></g><mask id="mask--LazUIzv0lI5iHqwUqhZu"><rect x="0" y="0" fill="#fff" width="1967.3146555456028" height="1170.7757488861512"></rect><rect x="1684.4681329626628" y="651.4015476613149" fill="#000" width="24.767990112304688" height="45" opacity="1"></rect></mask><g transform="translate(1684.4681329626628 651.4015476613149) rotate(0 -126.23123755927406 -98.17805560456691)"><text x="12.383995056152344" y="0" font-family="Virgil, Segoe UI Emoji" font-size="36px" fill="#000000" text-anchor="middle" style="white-space: pre;" direction="ltr" dominant-baseline="text-before-edge">0</text></g><g mask="url(#mask-Un1yJBpbA-ASqjw8pIxbW)" stroke-linecap="round"><g transform="translate(887.3874165439161 608.495468893082) rotate(0 491.56573282455645 -111.05620762549052)"><path d="M-0.33 0.65 C120.06 -1.59, 558 24.9, 721.96 -13.57 C885.93 -52.04, 939.95 -194.17, 983.47 -230.17 M1.69 -0.06 C122.48 -2.09, 560.55 26.08, 724.09 -12.09 C887.62 -50.27, 939.69 -193.06, 982.9 -229.11" stroke="#000000" stroke-width="1" fill="none"></path></g><g transform="translate(887.3874165439161 608.495468893082) rotate(0 491.56573282455645 -111.05620762549052)"><path d="M974.5 -202.52 C975.77 -207.52, 977.64 -215.68, 983.07 -229.29 M973.67 -200.21 C976.58 -208.1, 977.27 -215.01, 983.02 -229.36" stroke="#000000" stroke-width="1" fill="none"></path></g><g transform="translate(887.3874165439161 608.495468893082) rotate(0 491.56573282455645 -111.05620762549052)"><path d="M958.42 -215.26 C963.93 -216.85, 970.04 -221.64, 983.07 -229.29 M957.59 -212.96 C964.5 -217.72, 969.12 -221.5, 983.02 -229.36" stroke="#000000" stroke-width="1" fill="none"></path></g></g><mask id="mask-Un1yJBpbA-ASqjw8pIxbW"><rect x="0" y="0" fill="#fff" width="1970.4766176868081" height="938.1698861443729"></rect><rect x="1598.085924319304" y="572.5368811201643" fill="#000" width="24.767990112304688" height="45" opacity="1"></rect></mask><g transform="translate(1598.085924319304 572.5368811201643) rotate(0 -219.1327749508315 -75.09761985257273)"><text x="12.383995056152344" y="0" font-family="Virgil, Segoe UI Emoji" font-size="36px" fill="#000000" text-anchor="middle" style="white-space: pre;" direction="ltr" dominant-baseline="text-before-edge">0</text></g><g transform="translate(1222.8712759140117 145.33875749608387) rotate(0 -52.86638851717805 111.03978906676593)"><text x="12.383995056152344" y="0" font-family="Virgil, Segoe UI Emoji" font-size="36px" fill="#000000" text-anchor="middle" style="white-space: pre;" direction="ltr" dominant-baseline="text-before-edge">0</text></g><g mask="url(#mask-rer0EJ6rVI9AKmPUwq29T)" stroke-linecap="round"><g transform="translate(49.50968301873195 297.9299111645796) rotate(0 388.45214303808257 -135.88857918516055)"><path d="M-0.72 0.02 C47.09 -35.81, 156.13 -170.11, 285.85 -215.05 C415.58 -259.99, 695.62 -260.3, 777.63 -269.63 M1.1 -1.02 C49.39 -36.71, 158.77 -168.86, 288.13 -213.99 C417.5 -259.12, 696.13 -262.38, 777.28 -271.79" stroke="#000000" stroke-width="1" fill="none"></path></g><g transform="translate(49.50968301873195 297.9299111645796) rotate(0 388.45214303808257 -135.88857918516055)"><path d="M749.9 -260.97 C754.19 -260.7, 762.11 -262.8, 775.53 -270.22 M749.95 -260.39 C758.6 -263.51, 767.69 -267.41, 777.03 -272.04" stroke="#000000" stroke-width="1" fill="none"></path></g><g transform="translate(49.50968301873195 297.9299111645796) rotate(0 388.45214303808257 -135.88857918516055)"><path d="M748.48 -281.44 C753.05 -276.81, 761.28 -274.56, 775.53 -270.22 M748.53 -280.86 C757.63 -277, 767.21 -273.91, 777.03 -272.04" stroke="#000000" stroke-width="1" fill="none"></path></g></g><mask id="mask-rer0EJ6rVI9AKmPUwq29T"><rect x="0" y="0" fill="#fff" width="926.3366978405364" height="667.9060482218756"></rect><rect x="292.45457494848574" y="61.291399975435525" fill="#000" width="87.44395446777344" height="45" opacity="1"></rect></mask><g transform="translate(292.45457494848574 61.291399975435525) rotate(0 145.50725110832877 100.74993200398353)"><text x="43.72197723388672" y="0" font-family="Virgil, Segoe UI Emoji" font-size="36px" fill="#000000" text-anchor="middle" style="white-space: pre;" direction="ltr" dominant-baseline="text-before-edge">-250</text></g></svg>