<svg version="1.1" xmlns="http://www.w3.org/2000/svg" viewBox="0 0 1482.9293318309942 779.5476737962786" width="2965.8586636619884" height="1559.0953475925571">
  <!-- svg-source:excalidraw -->
  
  <defs>
    <style class="style-fonts">
      @font-face {
        font-family: "Virgil";
        src: url("https://excalidraw.com/Virgil.woff2");
      }
      @font-face {
        font-family: "Cascadia";
        src: url("https://excalidraw.com/Cascadia.woff2");
      }
    </style>
  </defs>
  <rect x="0" y="0" width="1482.9293318309942" height="779.5476737962786" fill="#ffffff"></rect><g stroke-linecap="round" transform="translate(383.7220284608809 124.54908075836101) rotate(0 40 39)"><path d="M42.31 -0.16 C49.17 0, 57.06 4.32, 62.73 8.44 C68.41 12.56, 73.66 18.2, 76.35 24.57 C79.04 30.93, 80.1 39.53, 78.89 46.63 C77.68 53.74, 74.19 62, 69.1 67.18 C64.01 72.35, 55.39 76.35, 48.35 77.68 C41.32 79.01, 33.74 77.79, 26.9 75.17 C20.05 72.54, 11.86 67.45, 7.3 61.91 C2.74 56.37, 0 48.87, -0.47 41.93 C-0.93 35, 1 26.34, 4.53 20.31 C8.06 14.27, 14.15 8.93, 20.71 5.74 C27.27 2.56, 39.55 1.84, 43.88 1.19 C48.2 0.55, 46.72 1.52, 46.67 1.86 M21.64 4.66 C27.36 1.02, 35.47 0.46, 42.54 0.88 C49.6 1.31, 58.2 2.97, 64.02 7.2 C69.85 11.42, 75.14 19.54, 77.49 26.23 C79.84 32.93, 79.84 40.81, 78.13 47.38 C76.43 53.95, 72.39 60.73, 67.26 65.66 C62.13 70.59, 54.41 75.24, 47.36 76.98 C40.3 78.73, 31.75 78.49, 24.93 76.15 C18.12 73.81, 10.61 68.8, 6.45 62.96 C2.3 57.12, 0.18 48.45, 0.01 41.11 C-0.16 33.77, 2.03 25.22, 5.45 18.91 C8.87 12.6, 17.99 5.62, 20.54 3.25 C23.08 0.89, 20.33 3.73, 20.71 4.74" stroke="#000000" stroke-width="1" fill="none"></path></g><g mask="url(#mask-xz9UWtoKCkvayxkV2KY-l)" stroke-linecap="round"><g transform="translate(87.53687477559401 355.11260817554876) rotate(0 209.86364495040743 -13.648611003248334)"><path d="M0.14 -0.92 C69.98 -5.53, 348.92 -23.76, 418.85 -28.52 M-1.25 1.22 C68.96 -3.11, 350.97 -22.01, 420.97 -26.99" stroke="#000000" stroke-width="1" fill="none"></path></g><g transform="translate(87.53687477559401 355.11260817554876) rotate(0 209.86364495040743 -13.648611003248334)"><path d="M392.03 -16.7 C401.43 -18.8, 407.69 -19.89, 419.09 -27.64 M394.51 -15.49 C401.64 -17.85, 407.79 -22.5, 420.1 -27.6" stroke="#000000" stroke-width="1" fill="none"></path></g><g transform="translate(87.53687477559401 355.11260817554876) rotate(0 209.86364495040743 -13.648611003248334)"><path d="M390.62 -37.17 C400.28 -33.42, 406.94 -28.65, 419.09 -27.64 M393.11 -35.96 C400.58 -32.81, 407.11 -31.95, 420.1 -27.6" stroke="#000000" stroke-width="1" fill="none"></path></g></g><mask id="mask-xz9UWtoKCkvayxkV2KY-l"><rect x="0" y="0" fill="#fff" width="607.5089374313725" height="483.60121394234693"></rect><rect x="258.5529201415693" y="318.36830529214967" fill="#000" width="77.93997192382812" height="45" opacity="1"></rect></mask><g mask="url(#mask-aIZuDdXSSKej8VQHd3gro)" stroke-linecap="round"><g transform="translate(473.3669450566399 153.08203731484173) rotate(0 172.67423544138336 -52.20465007011819)"><path d="M-1.12 -0.03 C56.6 -17.27, 288.3 -86.96, 346.47 -104.38 M0.49 -1.09 C58.02 -18.13, 287.5 -86.24, 345.38 -103.36" stroke="#000000" stroke-width="1" fill="none"></path></g><g transform="translate(473.3669450566399 153.08203731484173) rotate(0 172.67423544138336 -52.20465007011819)"><path d="M321.22 -85.97 C327.28 -88.92, 334.55 -97.06, 344.77 -103.67 M321.95 -85.13 C328.86 -92.51, 336.87 -98.28, 345.02 -103.47" stroke="#000000" stroke-width="1" fill="none"></path></g><g transform="translate(473.3669450566399 153.08203731484173) rotate(0 172.67423544138336 -52.20465007011819)"><path d="M315.39 -105.64 C323.12 -102.41, 332.2 -104.41, 344.77 -103.67 M316.11 -104.8 C325.23 -105.35, 335.25 -104.33, 345.02 -103.47" stroke="#000000" stroke-width="1" fill="none"></path></g></g><mask id="mask-aIZuDdXSSKej8VQHd3gro"><rect x="0" y="0" fill="#fff" width="920.1128969487706" height="356.48553443924993"></rect><rect x="610.4159387639356" y="78.88028875263763" fill="#000" width="72.64796447753906" height="45" opacity="1"></rect></mask><g transform="translate(610.4159387639356 78.88028875263763) rotate(0 35.62524173408764 21.99709849208591)"><text x="36.32398223876953" y="0" font-family="Virgil, Segoe UI Emoji" font-size="36px" fill="#000000" text-anchor="middle" style="white-space: pre;" direction="ltr" dominant-baseline="text-before-edge">250</text></g><g transform="translate(39.27172850839747 321.33462268161566) rotate(0 10.944000244140625 22.5)"><text x="10.944000244140625" y="0" font-family="Virgil, Segoe UI Emoji" font-size="36px" fill="#000000" text-anchor="middle" style="white-space: pre;" direction="ltr" dominant-baseline="text-before-edge">S</text></g><g mask="url(#mask-HbbJGi1cqrnklKAco2Orr)" stroke-linecap="round"><g transform="translate(98.6901281898156 345.9381048028886) rotate(0 137.03479977341578 -89.37916119768181)"><path d="M-0.39 -0.37 C45.16 -29.6, 228.43 -146.97, 274.46 -176.55 M1.61 -1.61 C46.88 -31.1, 227.74 -149.16, 273.41 -178.39" stroke="#000000" stroke-width="1" fill="none"></path></g><g transform="translate(98.6901281898156 345.9381048028886) rotate(0 137.03479977341578 -89.37916119768181)"><path d="M254.71 -154.77 C263.62 -161.96, 268.57 -172.02, 274.18 -179.49 M254.96 -154.57 C258.7 -158.8, 263.5 -164.43, 274.37 -178.01" stroke="#000000" stroke-width="1" fill="none"></path></g><g transform="translate(98.6901281898156 345.9381048028886) rotate(0 137.03479977341578 -89.37916119768181)"><path d="M243.56 -171.99 C256.73 -172.32, 266.1 -175.55, 274.18 -179.49 M243.81 -171.8 C249.63 -172.51, 256.66 -174.69, 274.37 -178.01" stroke="#000000" stroke-width="1" fill="none"></path></g></g><mask id="mask-HbbJGi1cqrnklKAco2Orr"><rect x="0" y="0" fill="#fff" width="473.3337333851407" height="623.0311509683027"></rect><rect x="206.49194177380627" y="234.89158172018142" fill="#000" width="59.03997802734375" height="45" opacity="1"></rect></mask><g transform="translate(206.49194177380627 234.89158172018142) rotate(0 29.232986189425105 21.667361885025343)"><text x="29.519989013671875" y="0" font-family="Virgil, Segoe UI Emoji" font-size="36px" fill="#000000" text-anchor="middle" style="white-space: pre;" direction="ltr" dominant-baseline="text-before-edge">310</text></g><g mask="url(#mask-nMbNvOOxjmTvRDTP-i1at)" stroke-linecap="round"><g transform="translate(420.73399923253737 210.64801233748858) rotate(0 189.86484809850765 186.41345410821089)"><path d="M0.82 0.46 C7.44 53.58, -21.93 255.99, 40.9 317.96 C103.73 379.92, 321.56 363.1, 377.81 372.24 M-0.21 -0.35 C6.7 52.95, -20.13 256.61, 43.27 318.87 C106.66 381.12, 324.29 364.01, 380.16 373.18" stroke="#000000" stroke-width="1" fill="none"></path></g><g transform="translate(420.73399923253737 210.64801233748858) rotate(0 189.86484809850765 186.41345410821089)"><path d="M352.28 381 C360.93 376.63, 373.06 374.11, 379.93 372.27 M352.48 382.49 C361.59 378.93, 369.67 375.3, 379.95 373.69" stroke="#000000" stroke-width="1" fill="none"></path></g><g transform="translate(420.73399923253737 210.64801233748858) rotate(0 189.86484809850765 186.41345410821089)"><path d="M353.24 360.5 C361.37 364.26, 373.12 369.86, 379.93 372.27 M353.44 361.99 C362.38 365.27, 370.13 368.48, 379.95 373.69" stroke="#000000" stroke-width="1" fill="none"></path></g></g><mask id="mask-nMbNvOOxjmTvRDTP-i1at"><rect x="0" y="0" fill="#fff" width="899.5854651168634" height="683.6197137549432"></rect><rect x="424.84009837170856" y="507.30383760179393" fill="#000" width="74.91596984863281" height="45" opacity="1"></rect></mask><g transform="translate(424.84009837170856 507.30383760179393) rotate(0 185.75874895933646 -110.24237115609446)"><text x="37.457984924316406" y="0" font-family="Virgil, Segoe UI Emoji" font-size="36px" fill="#000000" text-anchor="middle" style="white-space: pre;" direction="ltr" dominant-baseline="text-before-edge">230</text></g><g stroke-linecap="round" transform="translate(1392.9293318309942 454.825230824581) rotate(0 40 39)"><path d="M33.14 1.36 C39.71 -0.14, 48.04 1.24, 54.71 3.89 C61.39 6.54, 69.03 11.81, 73.19 17.27 C77.34 22.72, 79.59 29.72, 79.63 36.61 C79.68 43.5, 76.99 52.34, 73.47 58.61 C69.94 64.88, 64.78 71.08, 58.51 74.2 C52.24 77.33, 43.01 78.2, 35.84 77.38 C28.67 76.56, 21.2 73.64, 15.49 69.31 C9.78 64.97, 3.89 58.09, 1.58 51.35 C-0.73 44.6, -0.21 35.75, 1.62 28.85 C3.44 21.96, 7.16 14.82, 12.55 9.97 C17.93 5.13, 29.94 1.37, 33.94 -0.23 C37.93 -1.83, 36.22 -0.21, 36.51 0.38 M51.17 0.29 C57.84 1.39, 64.73 6.34, 69.33 11.69 C73.92 17.03, 77.57 24.97, 78.75 32.35 C79.94 39.72, 79.21 49.49, 76.42 55.93 C73.64 62.37, 67.83 67.44, 62.03 71 C56.24 74.57, 48.97 77.23, 41.67 77.33 C34.38 77.42, 24.82 75.11, 18.27 71.58 C11.72 68.04, 5.6 62.3, 2.38 56.09 C-0.85 49.87, -2.29 41.29, -1.09 34.31 C0.12 27.32, 4.83 19.56, 9.6 14.2 C14.37 8.84, 20.62 4.02, 27.53 2.14 C34.43 0.26, 47.42 3.16, 51.02 2.92 C54.62 2.69, 49.34 0.25, 49.12 0.74" stroke="#000000" stroke-width="1" fill="none"></path></g><g stroke-linecap="round" transform="translate(799.725621821628 568.1811449111678) rotate(0 40 39)"><path d="M30.49 1.96 C37.04 -0.1, 47.06 0.81, 53.88 2.87 C60.69 4.93, 67.21 8.89, 71.37 14.33 C75.54 19.76, 78.12 28.29, 78.87 35.51 C79.62 42.72, 79.07 51.44, 75.87 57.62 C72.66 63.8, 65.92 69.21, 59.64 72.58 C53.36 75.95, 45.45 78.17, 38.17 77.81 C30.89 77.46, 21.79 74.68, 15.94 70.46 C10.1 66.24, 5.65 59.14, 3.1 52.51 C0.56 45.87, -0.57 37.54, 0.68 30.66 C1.93 23.77, 4.98 16.35, 10.61 11.21 C16.23 6.07, 29.76 1.7, 34.44 -0.18 C39.11 -2.06, 38.48 -0.81, 38.68 -0.08 M34.31 -1.06 C40.83 -2.37, 49.79 -0.27, 56.37 3.17 C62.94 6.61, 69.84 13.6, 73.77 19.58 C77.7 25.56, 79.84 32.31, 79.96 39.03 C80.08 45.74, 78.55 54.01, 74.48 59.87 C70.41 65.73, 62.58 71.18, 55.55 74.19 C48.52 77.2, 39.55 78.89, 32.29 77.93 C25.03 76.98, 17.07 73.14, 11.97 68.45 C6.86 63.77, 3.46 56.57, 1.64 49.81 C-0.17 43.05, -1.05 34.43, 1.09 27.9 C3.23 21.38, 9.1 15.5, 14.49 10.66 C19.88 5.82, 30.03 0.36, 33.45 -1.13 C36.86 -2.61, 34.59 0.87, 34.97 1.77" stroke="#000000" stroke-width="1" fill="none"></path></g><g stroke-linecap="round" transform="translate(1159.4827600767503 691.5476737962786) rotate(0 40 39)"><path d="M54.55 3.11 C61.18 4.66, 67.74 9.37, 71.8 14.88 C75.87 20.4, 78.31 28.98, 78.93 36.2 C79.55 43.43, 78.85 52.11, 75.53 58.23 C72.21 64.35, 65.36 69.66, 59.01 72.92 C52.67 76.17, 44.73 78.24, 37.46 77.77 C30.18 77.29, 21.14 74.36, 15.37 70.04 C9.6 65.73, 5.27 58.53, 2.85 51.85 C0.43 45.18, -0.54 36.83, 0.83 29.97 C2.21 23.12, 5.99 15.66, 11.11 10.71 C16.23 5.77, 23.6 1.51, 31.57 0.31 C39.53 -0.9, 53.75 2.32, 58.91 3.49 C64.07 4.66, 62.98 6.55, 62.55 7.33 M24.28 2.25 C30.48 -0.33, 40.08 0.57, 47.28 1.89 C54.49 3.21, 62.04 5.66, 67.49 10.18 C72.94 14.71, 78.35 22.21, 79.98 29.03 C81.61 35.86, 80.05 44.32, 77.28 51.14 C74.5 57.97, 69.14 65.5, 63.34 70 C57.55 74.5, 49.39 77.48, 42.49 78.15 C35.59 78.83, 28.24 77.25, 21.94 74.06 C15.65 70.87, 8.33 64.89, 4.72 59 C1.11 53.12, 0.1 46.07, 0.3 38.74 C0.5 31.4, 1.82 20.89, 5.94 15.01 C10.06 9.14, 21.75 5.4, 25.04 3.5 C28.34 1.6, 25.71 2.94, 25.73 3.62" stroke="#000000" stroke-width="1" fill="none"></path></g><g stroke-linecap="round" transform="translate(514.3767021598319 281.58453498882955) rotate(0 40 39)"><path d="M58.14 3.51 C64.24 5.98, 70.02 13.12, 73.74 19.43 C77.46 25.75, 80.67 34.4, 80.46 41.39 C80.26 48.38, 76.71 55.72, 72.5 61.35 C68.3 66.97, 62.01 72.5, 55.22 75.15 C48.43 77.79, 38.86 78.64, 31.77 77.2 C24.67 75.77, 17.81 71.47, 12.67 66.52 C7.54 61.57, 2.82 54.32, 0.96 47.49 C-0.9 40.66, -0.88 32.15, 1.51 25.52 C3.9 18.88, 9.39 12.08, 15.28 7.7 C21.17 3.32, 29.05 -0.46, 36.84 -0.74 C44.63 -1.01, 57.57 4.44, 62.02 6.05 C66.48 7.66, 64.15 8.44, 63.57 8.93 M22.03 5.27 C28.04 1.82, 36.98 -0.74, 44.37 -0.28 C51.75 0.18, 60.83 3.61, 66.34 8.04 C71.85 12.47, 75.62 19.44, 77.44 26.29 C79.26 33.15, 79.21 42.24, 77.26 49.18 C75.31 56.13, 70.76 63.21, 65.74 67.97 C60.72 72.73, 54.13 76.51, 47.15 77.75 C40.17 78.99, 30.52 77.91, 23.88 75.39 C17.24 72.87, 11.54 68.72, 7.33 62.62 C3.12 56.53, -1.12 45.98, -1.4 38.81 C-1.67 31.65, 1.68 25.44, 5.68 19.66 C9.68 13.88, 20.02 6.42, 22.61 4.14 C25.21 1.85, 20.89 5.59, 21.25 5.95" stroke="#000000" stroke-width="1" fill="none"></path></g><g mask="url(#mask-deloj8mPokLgCgQoIK71o)" stroke-linecap="round"><g transform="translate(600.1538044938927 346.64966119230075) rotate(0 289.1522041776434 174.64068531536964)"><path d="M1.15 0.46 C47.23 16.16, 181.59 35.53, 277.34 93.61 C373.1 151.69, 525.82 306.07, 575.68 348.92 M0.3 -0.34 C46.2 15.58, 180.48 36.61, 276.76 94.94 C373.05 153.26, 528.03 307.36, 578.01 349.62" stroke="#000000" stroke-width="1" fill="none"></path></g><g transform="translate(600.1538044938927 346.64966119230075) rotate(0 289.1522041776434 174.64068531536964)"><path d="M551.01 339.43 C559.85 340.42, 568.89 346.04, 579.04 350.37 M550.12 337.75 C558.51 341.94, 566.36 344.85, 577.46 348.88" stroke="#000000" stroke-width="1" fill="none"></path></g><g transform="translate(600.1538044938927 346.64966119230075) rotate(0 289.1522041776434 174.64068531536964)"><path d="M564.81 324.24 C568.44 331.02, 572.34 342.29, 579.04 350.37 M563.92 322.57 C568.09 331.41, 571.77 338.9, 577.46 348.88" stroke="#000000" stroke-width="1" fill="none"></path></g></g><mask id="mask-deloj8mPokLgCgQoIK71o"><rect x="0" y="0" fill="#fff" width="1276.9149505514263" height="796.756656976168"></rect><rect x="840.6313990306253" y="418.1651010665428" fill="#000" width="72.323974609375" height="45" opacity="1"></rect></mask><g transform="translate(840.6313990306253 418.1651010665428) rotate(0 48.67460964091083 103.12524544112762)"><text x="36.1619873046875" y="0" font-family="Virgil, Segoe UI Emoji" font-size="36px" fill="#000000" text-anchor="middle" style="white-space: pre;" direction="ltr" dominant-baseline="text-before-edge">290</text></g><g mask="url(#mask-tDMdtiqlo0GvZFiizub07)" stroke-linecap="round"><g transform="translate(884.8369264628998 608.7701026081768) rotate(0 250.12419955947811 -54.20018974613117)"><path d="M-1.08 -1.18 C82.36 -19.02, 417.48 -89.61, 501.33 -107.42 M0.55 0.81 C83.75 -17.34, 416.76 -91.3, 500.25 -109.21" stroke="#000000" stroke-width="1" fill="none"></path></g><g transform="translate(884.8369264628998 608.7701026081768) rotate(0 250.12419955947811 -54.20018974613117)"><path d="M472.93 -93.58 C485.08 -97.94, 493.17 -105.25, 501.27 -109.45 M474.31 -93.29 C480.7 -98.02, 487.01 -101.41, 499.71 -108.74" stroke="#000000" stroke-width="1" fill="none"></path></g><g transform="translate(884.8369264628998 608.7701026081768) rotate(0 250.12419955947811 -54.20018974613117)"><path d="M468.55 -113.63 C482.2 -110.76, 491.86 -110.89, 501.27 -109.45 M469.92 -113.33 C477.4 -113.07, 484.8 -111.45, 499.71 -108.74" stroke="#000000" stroke-width="1" fill="none"></path></g></g><mask id="mask-tDMdtiqlo0GvZFiizub07"><rect x="0" y="0" fill="#fff" width="1486.4176651040984" height="816.8066591971601"></rect><rect x="1108.681304267386" y="532.2518243136851" fill="#000" width="53.89198303222656" height="45" opacity="1"></rect></mask><g transform="translate(1108.681304267386 532.2518243136851) rotate(0 26.279821754991957 22.318088548360492)"><text x="26.94599151611328" y="0" font-family="Virgil, Segoe UI Emoji" font-size="36px" fill="#000000" text-anchor="middle" style="white-space: pre;" direction="ltr" dominant-baseline="text-before-edge">170</text></g><g mask="url(#mask-JDKi_MR6HgPxHd61y5e1D)" stroke-linecap="round"><g transform="translate(606.9635687944103 323.94978989764695) rotate(0 385.95282112388145 76.4462246698356)"><path d="M0.45 0.02 C129.27 25.57, 643.92 128.46, 772.68 153.9 M-0.78 -1.01 C127.87 24.13, 642.65 126.32, 771.48 152.1" stroke="#000000" stroke-width="1" fill="none"></path></g><g transform="translate(606.9635687944103 323.94978989764695) rotate(0 385.95282112388145 76.4462246698356)"><path d="M741.86 155.85 C751.1 155.04, 757.36 153.88, 772.27 150.91 M741.25 156.54 C749.84 156.04, 758.01 154.8, 771.43 151.84" stroke="#000000" stroke-width="1" fill="none"></path></g><g transform="translate(606.9635687944103 323.94978989764695) rotate(0 385.95282112388145 76.4462246698356)"><path d="M745.87 135.72 C754.09 140.54, 759.23 145.01, 772.27 150.91 M745.26 136.41 C752.58 141.67, 759.6 146.22, 771.43 151.84" stroke="#000000" stroke-width="1" fill="none"></path></g></g><mask id="mask-JDKi_MR6HgPxHd61y5e1D"><rect x="0" y="0" fill="#fff" width="1480.1340085874253" height="577.244546114367"></rect><rect x="966.6027971748047" y="378.097168006007" fill="#000" width="53.89198303222656" height="45" opacity="1"></rect></mask><g transform="translate(966.6027971748047 378.097168006007) rotate(0 26.313592743487106 22.298846561475557)"><text x="26.94599151611328" y="0" font-family="Virgil, Segoe UI Emoji" font-size="36px" fill="#000000" text-anchor="middle" style="white-space: pre;" direction="ltr" dominant-baseline="text-before-edge">170</text></g><g transform="translate(258.5529201415693 318.36830529214967) rotate(0 38.847599584432146 23.095691880150753)"><text x="38.96998596191406" y="0" font-family="Virgil, Segoe UI Emoji" font-size="36px" fill="#000000" text-anchor="middle" style="white-space: pre;" direction="ltr" dominant-baseline="text-before-edge">280</text></g><g transform="translate(1419.1050672973995 471.24806635830555) rotate(0 14.039993286132812 22.5)"><text x="14.039993286132812" y="0" font-family="Virgil, Segoe UI Emoji" font-size="36px" fill="#000000" text-anchor="middle" style="white-space: pre;" direction="ltr" dominant-baseline="text-before-edge">D</text></g><g transform="translate(827.809354419381 584.6039804448924) rotate(0 12.131996154785156 22.5)"><text x="12.131996154785156" y="0" font-family="Virgil, Segoe UI Emoji" font-size="36px" fill="#000000" text-anchor="middle" style="white-space: pre;" direction="ltr" dominant-baseline="text-before-edge">E</text></g><g transform="translate(1189.3664957262613 707.9705093300031) rotate(0 10.331993103027344 22.5)"><text x="10.331993103027344" y="0" font-family="Virgil, Segoe UI Emoji" font-size="36px" fill="#000000" text-anchor="middle" style="white-space: pre;" direction="ltr" dominant-baseline="text-before-edge">F</text></g><g stroke-linecap="round" transform="translate(829.155635444723 10) rotate(0 40 39)"><path d="M29.81 1.38 C36.13 -0.74, 44.87 -0.01, 51.54 2.01 C58.21 4.03, 65.29 8.26, 69.82 13.5 C74.36 18.75, 77.76 26.47, 78.75 33.48 C79.74 40.49, 78.56 49.14, 75.76 55.57 C72.96 62, 68.07 68.21, 61.96 72.07 C55.85 75.94, 46.52 78.91, 39.1 78.75 C31.68 78.6, 23.47 75.31, 17.46 71.14 C11.45 66.97, 5.83 60.26, 3.05 53.73 C0.26 47.2, -0.46 38.73, 0.76 31.97 C1.98 25.21, 5.04 18.46, 10.36 13.17 C15.68 7.89, 28.4 2.24, 32.69 0.24 C36.97 -1.76, 35.81 0.62, 36.07 1.17 M21.82 4.53 C27.41 1.03, 34.96 0.94, 42.2 1.34 C49.45 1.74, 59.44 2.68, 65.29 6.92 C71.13 11.17, 75.03 19.82, 77.27 26.8 C79.51 33.77, 80.13 41.93, 78.71 48.77 C77.3 55.6, 73.68 62.88, 68.78 67.8 C63.88 72.72, 56.67 77.09, 49.32 78.3 C41.97 79.51, 31.79 77.71, 24.67 75.07 C17.54 72.43, 10.54 68.1, 6.58 62.44 C2.61 56.78, 0.87 48.03, 0.89 41.1 C0.92 34.17, 3.1 26.78, 6.7 20.84 C10.3 14.91, 19.8 8.33, 22.5 5.5 C25.2 2.67, 22.87 3.46, 22.91 3.87" stroke="#000000" stroke-width="1" fill="none"></path></g><g transform="translate(857.5633655400345 26.422835533724538) rotate(0 11.807998657226562 22.5)"><text x="11.807998657226562" y="0" font-family="Virgil, Segoe UI Emoji" font-size="36px" fill="#000000" text-anchor="middle" style="white-space: pre;" direction="ltr" dominant-baseline="text-before-edge">A</text></g><g transform="translate(410.85175867826274 140.97191629208555) rotate(0 13.08599853515625 22.5)"><text x="13.08599853515625" y="0" font-family="Virgil, Segoe UI Emoji" font-size="36px" fill="#000000" text-anchor="middle" style="white-space: pre;" direction="ltr" dominant-baseline="text-before-edge">B</text></g><g transform="translate(543.0004356731122 298.0073705225541) rotate(0 11.591995239257812 22.5)"><text x="11.591995239257812" y="0" font-family="Virgil, Segoe UI Emoji" font-size="36px" fill="#000000" text-anchor="middle" style="white-space: pre;" direction="ltr" dominant-baseline="text-before-edge">C</text></g><g stroke-linecap="round" transform="translate(10 304.9117871478911) rotate(0 40 39)"><path d="M32.31 0.53 C39.23 -1.14, 49.24 0.06, 55.92 2.87 C62.61 5.67, 68.46 11.66, 72.4 17.35 C76.33 23.05, 79.23 30.31, 79.52 37.04 C79.81 43.77, 77.69 51.79, 74.16 57.76 C70.63 63.72, 64.69 69.48, 58.36 72.84 C52.02 76.2, 43.33 78.55, 36.15 77.92 C28.97 77.28, 20.92 73.4, 15.29 69.03 C9.66 64.65, 4.57 58.41, 2.39 51.68 C0.2 44.94, 0.64 35.45, 2.19 28.6 C3.73 21.75, 6.13 15.26, 11.63 10.6 C17.13 5.93, 30.97 2.37, 35.17 0.61 C39.38 -1.15, 36.73 -0.66, 36.88 0.03 M23.56 4.19 C29.82 0.97, 39.69 0.11, 47.1 1.23 C54.51 2.34, 62.89 6.37, 68 10.86 C73.11 15.35, 76.23 21.5, 77.77 28.18 C79.32 34.87, 79.1 44.23, 77.25 50.99 C75.41 57.74, 71.78 64.09, 66.7 68.72 C61.62 73.35, 53.85 77.67, 46.75 78.77 C39.64 79.87, 30.65 78.72, 24.06 75.34 C17.48 71.95, 11.34 64.56, 7.23 58.45 C3.13 52.33, -0.47 45.62, -0.56 38.64 C-0.65 31.67, 2.74 22.36, 6.69 16.59 C10.65 10.81, 20.49 6.23, 23.18 3.99 C25.86 1.75, 22.52 2.54, 22.8 3.16" stroke="#000000" stroke-width="1" fill="none"></path></g><g mask="url(#mask-7Nwn6pZq8w90JDfqJUrNN)" stroke-linecap="round"><g transform="translate(62.06732317445494 384.9789750909508) rotate(0 543.4260346847959 171.78260412056397)"><path d="M-0.44 -1.11 C78.76 48.86, 294.26 241.26, 475.55 298.89 C656.83 356.52, 985.32 337.27, 1087.29 344.67 M1.53 0.93 C81.1 51.14, 297.12 243.2, 477.94 300.18 C658.76 357.17, 984.83 335.5, 1086.45 342.83" stroke="#000000" stroke-width="1" fill="none"></path></g><g transform="translate(62.06732317445494 384.9789750909508) rotate(0 543.4260346847959 171.78260412056397)"><path d="M1056.3 351.75 C1066.71 349.37, 1078.38 346.31, 1085.76 344.35 M1057.16 353.04 C1064.46 350.55, 1072.75 348.02, 1085.99 343.11" stroke="#000000" stroke-width="1" fill="none"></path></g><g transform="translate(62.06732317445494 384.9789750909508) rotate(0 543.4260346847959 171.78260412056397)"><path d="M1056.54 331.23 C1066.72 335.57, 1078.31 339.24, 1085.76 344.35 M1057.41 332.52 C1064.56 335.27, 1072.79 337.98, 1085.99 343.11" stroke="#000000" stroke-width="1" fill="none"></path></g></g><mask id="mask-7Nwn6pZq8w90JDfqJUrNN"><rect x="0" y="0" fill="#fff" width="1249.5050887614645" height="828.6862943026949"></rect><rect x="502.05782867574976" y="661.8406162798578" fill="#000" width="72.323974609375" height="45" opacity="1"></rect></mask><g transform="translate(502.05782867574976 661.8406162798578) rotate(0 103.4355291835011 -105.07903706834304)"><text x="36.1619873046875" y="0" font-family="Virgil, Segoe UI Emoji" font-size="36px" fill="#000000" text-anchor="middle" style="white-space: pre;" direction="ltr" dominant-baseline="text-before-edge">290</text></g><g mask="url(#mask-7RPO9L5T40zdM6x2jUG4l)" stroke-linecap="round"><g transform="translate(912.4429202059912 67.63441436757512) rotate(0 239.9981277150373 200.8539320338259)"><path d="M-0.15 0.96 C80.24 67.7, 401.22 333.48, 481.68 399.96 M-1.68 0.42 C78.59 67.37, 400.04 334.54, 480.71 401.28" stroke="#000000" stroke-width="1" fill="none"></path></g><g transform="translate(912.4429202059912 67.63441436757512) rotate(0 239.9981277150373 200.8539320338259)"><path d="M454.07 391.13 C458.78 395.25, 465.62 395.51, 480.03 399.33 M452.58 391.41 C461.16 394.7, 471.04 398.73, 479.77 400.32" stroke="#000000" stroke-width="1" fill="none"></path></g><g transform="translate(912.4429202059912 67.63441436757512) rotate(0 239.9981277150373 200.8539320338259)"><path d="M467.17 375.33 C468.55 383.38, 472.13 387.58, 480.03 399.33 M465.69 375.62 C469.82 384.11, 475.41 393.3, 479.77 400.32" stroke="#000000" stroke-width="1" fill="none"></path></g></g><mask id="mask-7RPO9L5T40zdM6x2jUG4l"><rect x="0" y="0" fill="#fff" width="1494.1514159239043" height="568.013734502435"></rect><rect x="1126.3511765488345" y="245.32407443500506" fill="#000" width="53.89198303222656" height="45" opacity="1"></rect></mask><g transform="translate(1126.3511765488345 245.32407443500506) rotate(0 26.08987137219401 23.164271966395972)"><text x="26.94599151611328" y="0" font-family="Virgil, Segoe UI Emoji" font-size="36px" fill="#000000" text-anchor="middle" style="white-space: pre;" direction="ltr" dominant-baseline="text-before-edge">170</text></g><g mask="url(#mask-41RfiLx30XFQVwxCxIXrU)" stroke-linecap="round"><g transform="translate(464.61499154383364 189.04920978945825) rotate(0 456.4767984346097 146.64395207689302)"><path d="M0.91 -0.54 C153.09 48.28, 761.13 243.54, 913.03 292.5 M-0.07 1.8 C151.91 50.82, 759.4 245, 911.84 293.82" stroke="#000000" stroke-width="1" fill="none"></path></g><g transform="translate(464.61499154383364 189.04920978945825) rotate(0 456.4767984346097 146.64395207689302)"><path d="M880.97 294.26 C890.1 292.47, 900.25 292.18, 912.3 294.06 M882.04 296 C890.61 293.58, 901.24 294.61, 912.11 293.87" stroke="#000000" stroke-width="1" fill="none"></path></g><g transform="translate(464.61499154383364 189.04920978945825) rotate(0 456.4767984346097 146.64395207689302)"><path d="M887.23 274.72 C894.43 278.79, 902.72 284.31, 912.3 294.06 M888.29 276.45 C894.75 280.36, 903.37 287.71, 912.11 293.87" stroke="#000000" stroke-width="1" fill="none"></path></g></g><mask id="mask-41RfiLx30XFQVwxCxIXrU"><rect x="0" y="0" fill="#fff" width="1478.0889268191968" height="581.9628644020531"></rect><rect x="894.4059676654019" y="313.0060370957556" fill="#000" width="53.89198303222656" height="45" opacity="1"></rect></mask><g transform="translate(894.4059676654019 313.0060370957558) rotate(0 26.6858223130414 22.68712477059546)"><text x="26.94599151611328" y="0" font-family="Virgil, Segoe UI Emoji" font-size="36px" fill="#000000" text-anchor="middle" style="white-space: pre;" direction="ltr" dominant-baseline="text-before-edge">170</text></g><g mask="url(#mask-D4Y84tzI_Fgz85yQ5ugIL)" stroke-linecap="round"><g transform="translate(82.20476864735315 348.66347210557024) rotate(0 653.4589606271172 80.56544635494015)"><path d="M-1.17 0.33 C95.6 25.94, 361.99 129.69, 580.2 153.26 C798.41 176.82, 1186.89 143.63, 1308.09 141.72 M0.41 -0.54 C97.58 24.72, 364.48 127.32, 582.31 151.28 C800.14 175.23, 1186.56 144.55, 1307.4 143.18" stroke="#000000" stroke-width="1" fill="none"></path></g><g transform="translate(82.20476864735315 348.66347210557024) rotate(0 653.4589606271172 80.56544635494015)"><path d="M1280.2 152.69 C1287.43 152.1, 1294.73 147.94, 1307.95 143.53 M1279.66 155.03 C1291.1 150.34, 1301.03 146.54, 1307.92 142.35" stroke="#000000" stroke-width="1" fill="none"></path></g><g transform="translate(82.20476864735315 348.66347210557024) rotate(0 653.4589606271172 80.56544635494015)"><path d="M1279.36 132.18 C1286.74 136.99, 1294.26 138.22, 1307.95 143.53 M1278.82 134.52 C1290.41 138.03, 1300.67 142.41, 1307.92 142.35" stroke="#000000" stroke-width="1" fill="none"></path></g></g><mask id="mask-D4Y84tzI_Fgz85yQ5ugIL"><rect x="0" y="0" fill="#fff" width="1490.1521153289052" height="601.6485635699396"></rect><rect x="636.5905687614102" y="479.1485635699396" fill="#000" width="53.89198303222656" height="45" opacity="1"></rect></mask><g transform="translate(636.5905687614102 479.1485635699396) rotate(0 99.0731605130602 -49.91964510942921)"><text x="26.94599151611328" y="0" font-family="Virgil, Segoe UI Emoji" font-size="36px" fill="#000000" text-anchor="middle" style="white-space: pre;" direction="ltr" dominant-baseline="text-before-edge">170</text></g><g mask="url(#mask-g3fe7O4dFBlcIcQ2qMnj6)" stroke-linecap="round"><g transform="translate(55.03311759078724 304.3189706017665) rotate(0 385.56263651794757 -137.19987715092395)"><path d="M-1.05 1.09 C40.81 -35.76, 121.93 -174.25, 250.4 -219.99 C378.87 -265.73, 683 -264.24, 769.78 -273.37 M0.6 0.61 C42.37 -35.53, 120.83 -172.49, 249.43 -218.51 C378.02 -264.53, 685.17 -266.21, 772.18 -275.48" stroke="#000000" stroke-width="1" fill="none"></path></g><g transform="translate(55.03311759078724 304.3189706017665) rotate(0 385.56263651794757 -137.19987715092395)"><path d="M746.47 -263.62 C750.82 -267.67, 758.16 -268.37, 770.54 -275.58 M745.13 -263.58 C750.49 -265.6, 757.13 -270.19, 772.29 -275.78" stroke="#000000" stroke-width="1" fill="none"></path></g><g transform="translate(55.03311759078724 304.3189706017665) rotate(0 385.56263651794757 -137.19987715092395)"><path d="M745.22 -284.1 C750.06 -283.34, 757.69 -279.23, 770.54 -275.58 M743.88 -284.07 C749.55 -281.13, 756.49 -280.76, 772.29 -275.78" stroke="#000000" stroke-width="1" fill="none"></path></g></g><mask id="mask-g3fe7O4dFBlcIcQ2qMnj6"><rect x="0" y="0" fill="#fff" width="925.7538447690088" height="678.1118206616597"></rect><rect x="269.1563540028453" y="61.93415133678809" fill="#000" width="72.64796447753906" height="45" opacity="1"></rect></mask><g transform="translate(269.1563540028453 61.93415133678809) rotate(0 171.4394001058895 105.18494211405448)"><text x="36.32398223876953" y="0" font-family="Virgil, Segoe UI Emoji" font-size="36px" fill="#000000" text-anchor="middle" style="white-space: pre;" direction="ltr" dominant-baseline="text-before-edge">250</text></g></svg>