<svg version="1.1" xmlns="http://www.w3.org/2000/svg" viewBox="0 0 1962.0479567384086 779.547673796279" width="3924.0959134768173" height="1559.095347592558">
  <!-- svg-source:excalidraw -->
  
  <defs>
    <style class="style-fonts">
      @font-face {
        font-family: "Virgil";
        src: url("https://excalidraw.com/Virgil.woff2");
      }
      @font-face {
        font-family: "Cascadia";
        src: url("https://excalidraw.com/Cascadia.woff2");
      }
    </style>
  </defs>
  <rect x="0" y="0" width="1962.0479567384086" height="779.547673796279" fill="#ffffff"></rect><g stroke-linecap="round" transform="translate(383.7220284608809 124.54908075836101) rotate(0 40 39)"><path d="M58.4 3.37 C64.82 6.09, 71.88 13.94, 75.49 20.25 C79.09 26.55, 80.51 34.45, 80.03 41.17 C79.55 47.9, 76.6 54.85, 72.61 60.6 C68.62 66.36, 62.81 72.96, 56.09 75.7 C49.38 78.44, 39.72 78.55, 32.31 77.05 C24.9 75.54, 16.67 71.36, 11.63 66.67 C6.59 61.97, 3.57 55.67, 2.07 48.87 C0.57 42.06, 0.39 32.59, 2.65 25.85 C4.92 19.12, 10.09 12.67, 15.64 8.46 C21.2 4.24, 28.46 1.06, 36 0.53 C43.54 0.01, 56.27 4.01, 60.88 5.33 C65.48 6.64, 63.88 7.92, 63.65 8.42 M23.57 2.55 C29.39 -0.81, 37.89 -1.13, 45.13 -0.01 C52.36 1.11, 61.47 4.3, 66.97 9.27 C72.47 14.23, 76.09 23.09, 78.14 29.8 C80.19 36.5, 81.17 42.84, 79.25 49.48 C77.33 56.12, 72.3 65.18, 66.62 69.65 C60.94 74.13, 52.59 75.59, 45.16 76.36 C37.74 77.12, 28.66 77.05, 22.08 74.24 C15.49 71.43, 9.17 65.27, 5.67 59.5 C2.17 53.74, 0.94 46.89, 1.08 39.63 C1.21 32.36, 2.42 21.78, 6.5 15.91 C10.58 10.05, 22.34 6.52, 25.56 4.44 C28.78 2.35, 25.81 3.08, 25.84 3.42" stroke="#000000" stroke-width="1" fill="none"></path></g><g mask="url(#mask-1cxXTPkr4hfsyghgKzW7S)" stroke-linecap="round"><g transform="translate(87.53687477559401 355.1126081755492) rotate(0 210.00108954276322 -14.666579191027495)"><path d="M1.13 0.73 C71.25 -3.96, 350.11 -23.46, 419.74 -28.13 M0.26 0.07 C70.29 -5, 348.5 -25.21, 418.67 -30.07" stroke="#000000" stroke-width="1" fill="none"></path></g><g transform="translate(87.53687477559401 355.1126081755492) rotate(0 210.00108954276322 -14.666579191027495)"><path d="M392.51 -18.21 C397.87 -22.48, 405.23 -21.52, 418.8 -28.93 M391.87 -18.2 C398.96 -22.57, 406.4 -24.26, 419.1 -29.53" stroke="#000000" stroke-width="1" fill="none"></path></g><g transform="translate(87.53687477559401 355.1126081755492) rotate(0 210.00108954276322 -14.666579191027495)"><path d="M391.05 -38.68 C396.74 -38.48, 404.41 -33.04, 418.8 -28.93 M390.41 -38.67 C397.76 -37.17, 405.62 -32.97, 419.1 -29.53" stroke="#000000" stroke-width="1" fill="none"></path></g></g><mask id="mask-1cxXTPkr4hfsyghgKzW7S"><rect x="0" y="0" fill="#fff" width="607.5089374313725" height="483.6012139423474"></rect><rect x="258.5529201415691" y="318.3683052921501" fill="#000" width="77.93997192382812" height="45" opacity="1"></rect></mask><g mask="url(#mask-5LRDo_l3c3LJdGXHRE-Gf)" stroke-linecap="round"><g transform="translate(473.3669450566399 153.34450041461514) rotate(0 173.0423836910411 -51.69139172438099)"><path d="M-0.23 0.36 C57.2 -16.8, 287.7 -84.95, 345.72 -102.23 M-1.81 -0.5 C55.89 -18.03, 289.64 -86.83, 347.89 -103.74" stroke="#000000" stroke-width="1" fill="none"></path></g><g transform="translate(473.3669450566399 153.34450041461514) rotate(0 173.0423836910411 -51.69139172438099)"><path d="M324.32 -87.68 C335.09 -91, 342.79 -98.79, 347.64 -105.37 M323.43 -86.92 C332.53 -92.09, 343.33 -99.52, 347.26 -103.17" stroke="#000000" stroke-width="1" fill="none"></path></g><g transform="translate(473.3669450566399 153.34450041461514) rotate(0 173.0423836910411 -51.69139172438099)"><path d="M318.55 -107.38 C331.71 -102.93, 341.68 -102.96, 347.64 -105.37 M317.66 -106.62 C329.18 -103.91, 342.28 -103.48, 347.26 -103.17" stroke="#000000" stroke-width="1" fill="none"></path></g></g><mask id="mask-5LRDo_l3c3LJdGXHRE-Gf"><rect x="0" y="0" fill="#fff" width="920.1128969487706" height="356.74799753902334"></rect><rect x="610.4159387639359" y="79.14275185241104" fill="#000" width="72.64796447753906" height="45" opacity="1"></rect></mask><g transform="translate(610.4159387639359 79.14275185241104) rotate(0 35.993389983745146 22.51035683782311)"><text x="36.32398223876953" y="0" font-family="Virgil, Segoe UI Emoji" font-size="36px" fill="#000000" text-anchor="middle" style="white-space: pre;" direction="ltr" dominant-baseline="text-before-edge">250</text></g><g transform="translate(39.27172850839747 321.3346226816161) rotate(0 10.944000244140625 22.5)"><text x="10.944000244140625" y="0" font-family="Virgil, Segoe UI Emoji" font-size="36px" fill="#000000" text-anchor="middle" style="white-space: pre;" direction="ltr" dominant-baseline="text-before-edge">S</text></g><g mask="url(#mask-hbhH8yCovpyFA_R05RYPF)" stroke-linecap="round"><g transform="translate(99.85483710473409 345.8554369091112) rotate(0 137.14518479383912 -88.69899043169153)"><path d="M0.68 -0.15 C45.91 -29.45, 226.93 -146.21, 272.51 -175.75 M-0.42 -1.27 C45.07 -30.89, 229.01 -148.08, 274.71 -177.25" stroke="#000000" stroke-width="1" fill="none"></path></g><g transform="translate(99.85483710473409 345.8554369091112) rotate(0 137.14518479383912 -88.69899043169153)"><path d="M256.21 -155.06 C265.65 -161.8, 270.17 -173, 272.81 -178.71 M255.83 -152.86 C263.4 -162.72, 270.86 -172.05, 274.28 -176.72" stroke="#000000" stroke-width="1" fill="none"></path></g><g transform="translate(99.85483710473409 345.8554369091112) rotate(0 137.14518479383912 -88.69899043169153)"><path d="M245.18 -172.37 C259 -172.31, 267.89 -176.65, 272.81 -178.71 M244.8 -170.17 C256.72 -173.36, 268.46 -175.98, 274.28 -176.72" stroke="#000000" stroke-width="1" fill="none"></path></g></g><mask id="mask-hbhH8yCovpyFA_R05RYPF"><rect x="0" y="0" fill="#fff" width="473.34205795193816" height="622.7905309830812"></rect><rect x="207.07845851466413" y="234.88788987212638" fill="#000" width="59.03997802734375" height="45" opacity="1"></rect></mask><g transform="translate(207.07845851466413 234.88788987212638) rotate(0 29.921563383909074 22.26855660529327)"><text x="29.519989013671875" y="0" font-family="Virgil, Segoe UI Emoji" font-size="36px" fill="#000000" text-anchor="middle" style="white-space: pre;" direction="ltr" dominant-baseline="text-before-edge">310</text></g><g mask="url(#mask-EQVWXsv4aPHqZG9j__Kvj)" stroke-linecap="round"><g transform="translate(420.73399923253737 210.64801233748904) rotate(0 189.01495999583994 186.23808256739812)"><path d="M-0.35 -1.14 C6.31 52.3, -22.6 257.75, 40.69 320.21 C103.97 382.67, 323.13 364.71, 379.37 373.62 M1.66 0.87 C8.64 54.04, -19.93 256.86, 42.94 318.65 C105.81 380.44, 323.03 362.81, 378.87 371.61" stroke="#000000" stroke-width="1" fill="none"></path></g><g transform="translate(420.73399923253737 210.64801233748904) rotate(0 189.01495999583994 186.23808256739812)"><path d="M348.36 379.2 C362.32 378.36, 371.89 373, 380.01 371.52 M349.84 381.19 C359.27 378.54, 366.99 374.32, 378.92 372.08" stroke="#000000" stroke-width="1" fill="none"></path></g><g transform="translate(420.73399923253737 210.64801233748904) rotate(0 189.01495999583994 186.23808256739812)"><path d="M349.24 358.7 C362.81 365.21, 372.07 367.2, 380.01 371.52 M350.71 360.69 C359.95 364.31, 367.4 366.36, 378.92 372.08" stroke="#000000" stroke-width="1" fill="none"></path></g></g><mask id="mask-EQVWXsv4aPHqZG9j__Kvj"><rect x="0" y="0" fill="#fff" width="899.5854651168634" height="683.6197137549436"></rect><rect x="424.84009837170856" y="507.3038376017944" fill="#000" width="74.91596984863281" height="45" opacity="1"></rect></mask><g transform="translate(424.84009837170856 507.3038376017944) rotate(0 184.90886085666875 -110.41774269690723)"><text x="37.457984924316406" y="0" font-family="Virgil, Segoe UI Emoji" font-size="36px" fill="#000000" text-anchor="middle" style="white-space: pre;" direction="ltr" dominant-baseline="text-before-edge">230</text></g><g stroke-linecap="round" transform="translate(1480.8896484079876 437.916035584572) rotate(0 40 39)"><path d="M27.68 2.25 C33.92 -0.4, 43.06 -0.93, 50.12 0.85 C57.17 2.62, 65 7.78, 69.99 12.9 C74.98 18.02, 79.04 24.7, 80.05 31.58 C81.05 38.47, 78.86 47.67, 76.03 54.21 C73.2 60.75, 68.95 67.03, 63.06 70.84 C57.17 74.66, 48.06 76.82, 40.71 77.11 C33.37 77.39, 25.2 76.08, 19.02 72.55 C12.83 69.02, 6.62 62.13, 3.61 55.93 C0.61 49.72, 0.21 42.12, 0.97 35.3 C1.74 28.48, 2.47 20.8, 8.21 15 C13.96 9.19, 29.88 2.88, 35.44 0.46 C40.99 -1.97, 41.53 -0.15, 41.55 0.44 M40.34 -1.38 C47.26 -1.85, 57.32 3.69, 63.61 7.72 C69.9 11.76, 75.42 16.63, 78.08 22.82 C80.73 29.01, 80.77 37.95, 79.57 44.86 C78.37 51.76, 75.65 58.87, 70.89 64.24 C66.12 69.6, 58.31 74.9, 50.99 77.07 C43.67 79.23, 33.79 79.64, 26.97 77.24 C20.14 74.83, 14.67 68.31, 10.06 62.63 C5.45 56.95, 0.22 49.67, -0.69 43.18 C-1.59 36.68, 1.22 29.73, 4.63 23.67 C8.03 17.6, 13.59 10.9, 19.77 6.8 C25.95 2.7, 38.42 0.3, 41.7 -0.94 C44.97 -2.17, 39.58 -1.41, 39.43 -0.61" stroke="#000000" stroke-width="1" fill="none"></path></g><g stroke-linecap="round" transform="translate(799.725621821628 568.1811449111683) rotate(0 40 39)"><path d="M39.07 -0.42 C45.99 -1.12, 55.14 2.4, 61.4 6.01 C67.66 9.63, 73.72 14.98, 76.64 21.26 C79.56 27.55, 79.79 36.69, 78.89 43.73 C78 50.78, 75.81 58.28, 71.27 63.53 C66.74 68.79, 58.68 73.08, 51.68 75.29 C44.67 77.5, 36.21 78.53, 29.25 76.79 C22.28 75.06, 14.53 70, 9.86 64.89 C5.2 59.78, 2.5 52.91, 1.26 46.14 C0.02 39.37, -0.36 30.82, 2.44 24.26 C5.25 17.71, 11.33 10.9, 18.1 6.82 C24.86 2.74, 37.96 0.66, 43.04 -0.22 C48.12 -1.11, 48.5 0.68, 48.58 1.51 M59.06 5.18 C65.74 7.77, 72.16 12.52, 75.66 18.28 C79.16 24.04, 80.31 32.77, 80.05 39.76 C79.8 46.75, 78.14 54.27, 74.12 60.2 C70.1 66.14, 62.95 72.34, 55.94 75.38 C48.93 78.42, 39.11 79.94, 32.07 78.43 C25.03 76.92, 18.98 71.36, 13.69 66.32 C8.4 61.29, 2.16 54.51, 0.32 48.2 C-1.51 41.88, 0.16 34.83, 2.69 28.42 C5.22 22.02, 9.88 14.63, 15.5 9.78 C21.13 4.93, 29.64 0.52, 36.45 -0.68 C43.27 -1.88, 52.91 1.69, 56.42 2.57 C59.93 3.46, 57.58 3.78, 57.52 4.63" stroke="#000000" stroke-width="1" fill="none"></path></g><g stroke-linecap="round" transform="translate(1159.4827600767503 691.547673796279) rotate(0 40 39)"><path d="M47.16 0.83 C54.12 1.34, 62.43 4.71, 67.54 9.39 C72.65 14.08, 75.98 22.09, 77.82 28.95 C79.66 35.81, 80.7 43.99, 78.57 50.53 C76.43 57.07, 70.72 63.64, 65.02 68.19 C59.33 72.75, 51.57 76.93, 44.41 77.86 C37.24 78.79, 28.33 76.76, 22.03 73.78 C15.72 70.81, 10.37 65.87, 6.56 60.03 C2.76 54.19, -0.93 45.87, -0.8 38.74 C-0.67 31.62, 3.31 23.29, 7.34 17.29 C11.36 11.29, 16.04 5.39, 23.35 2.74 C30.67 0.08, 45.92 1.08, 51.25 1.38 C56.58 1.67, 55.38 3.9, 55.33 4.53 M23.61 3.58 C29.25 -0.14, 37.32 -0.77, 44.42 -0.04 C51.52 0.68, 60.57 3.39, 66.21 7.94 C71.86 12.48, 76.39 20.28, 78.27 27.24 C80.16 34.2, 79.28 43.22, 77.55 49.7 C75.82 56.19, 73.14 61.65, 67.88 66.13 C62.62 70.62, 53.1 74.89, 46.01 76.6 C38.93 78.31, 31.72 78.82, 25.38 76.4 C19.04 73.99, 12.03 68.28, 7.99 62.11 C3.94 55.93, 1.7 46.78, 1.12 39.37 C0.53 31.96, 0.93 23.52, 4.48 17.64 C8.04 11.75, 19.41 6.16, 22.46 4.05 C25.5 1.94, 22.33 4.21, 22.75 4.97" stroke="#000000" stroke-width="1" fill="none"></path></g><g stroke-linecap="round" transform="translate(514.3767021598319 281.58453498883) rotate(0 40 39)"><path d="M32.15 0.14 C38.5 -1.85, 46.45 -0.01, 53.18 2.51 C59.9 5.04, 68.12 9.83, 72.5 15.3 C76.88 20.78, 79.08 28.27, 79.45 35.36 C79.83 42.45, 78.22 51.58, 74.75 57.85 C71.29 64.11, 64.8 69.48, 58.65 72.94 C52.5 76.4, 45.08 78.97, 37.84 78.63 C30.6 78.28, 21.01 75.19, 15.2 70.88 C9.39 66.57, 5.51 59.53, 2.98 52.76 C0.45 45.99, -1.44 37.2, 0.02 30.28 C1.49 23.35, 5.7 16.13, 11.78 11.22 C17.86 6.32, 31.4 2.63, 36.49 0.87 C41.59 -0.9, 42.44 -0.06, 42.34 0.63 M55.79 2.86 C62.24 4.95, 70.08 10.43, 74.17 16.37 C78.25 22.32, 80.48 31.22, 80.29 38.53 C80.09 45.85, 76.66 54.58, 72.98 60.26 C69.3 65.94, 64.63 69.83, 58.18 72.61 C51.73 75.39, 41.41 77.29, 34.26 76.94 C27.12 76.58, 20.55 74.68, 15.31 70.49 C10.06 66.3, 4.94 58.91, 2.79 51.82 C0.65 44.74, 0.93 35.16, 2.45 27.99 C3.97 20.81, 6.72 13.34, 11.92 8.76 C17.12 4.18, 26.3 1.41, 33.63 0.5 C40.97 -0.4, 52.15 2.59, 55.95 3.32 C59.74 4.05, 56.46 4.48, 56.4 4.89" stroke="#000000" stroke-width="1" fill="none"></path></g><g mask="url(#mask-3CBoOMN1pViy_QM3KTj3e)" stroke-linecap="round"><g transform="translate(600.1538044938927 346.6496611923012) rotate(0 288.88832173561514 174.92566119694607)"><path d="M-0.51 0.64 C45.58 16.44, 180.92 36.7, 276.98 94.78 C373.05 152.86, 525.89 306.48, 575.87 349.12 M1.42 -0.07 C47.35 15.39, 180.07 34.72, 276.22 93.05 C372.36 151.39, 528.14 307.37, 578.29 349.93" stroke="#000000" stroke-width="1" fill="none"></path></g><g transform="translate(600.1538044938927 346.6496611923012) rotate(0 288.88832173561514 174.92566119694607)"><path d="M551.62 339.06 C561.07 340.92, 567.4 346.32, 579.22 349.24 M550.7 337.98 C557.24 342.22, 565.34 343.61, 578.96 350.39" stroke="#000000" stroke-width="1" fill="none"></path></g><g transform="translate(600.1538044938927 346.6496611923012) rotate(0 288.88832173561514 174.92566119694607)"><path d="M565.46 323.91 C570.29 330.76, 572.01 341.22, 579.22 349.24 M564.54 322.84 C567.42 330.89, 571.99 336.15, 578.96 350.39" stroke="#000000" stroke-width="1" fill="none"></path></g></g><mask id="mask-3CBoOMN1pViy_QM3KTj3e"><rect x="0" y="0" fill="#fff" width="1276.9149505514263" height="796.7566569761684"></rect><rect x="840.6313990306253" y="418.16510106654323" fill="#000" width="72.323974609375" height="45" opacity="1"></rect></mask><g transform="translate(840.6313990306253 418.16510106654323) rotate(0 48.41072719888257 103.41022132270405)"><text x="36.1619873046875" y="0" font-family="Virgil, Segoe UI Emoji" font-size="36px" fill="#000000" text-anchor="middle" style="white-space: pre;" direction="ltr" dominant-baseline="text-before-edge">290</text></g><g mask="url(#mask-qeE-Fg1DNvsQLK7XEYarJ)" stroke-linecap="round"><g transform="translate(884.8313443634165 608.9150196422711) rotate(0 294.3439022748381 -62.68921139574036)"><path d="M-0.9 -0.98 C97.31 -21.89, 491.25 -103.87, 589.58 -124.66 M0.83 1.12 C98.86 -20.21, 490.78 -105.52, 588.67 -126.49" stroke="#000000" stroke-width="1" fill="none"></path></g><g transform="translate(884.8313443634165 608.9150196422711) rotate(0 294.3439022748381 -62.68921139574036)"><path d="M561.64 -110.41 C572.45 -116.25, 578.97 -122.58, 587.97 -126.22 M564.01 -111.32 C570.34 -114.22, 576.17 -119.58, 588.25 -126.44" stroke="#000000" stroke-width="1" fill="none"></path></g><g transform="translate(884.8313443634165 608.9150196422711) rotate(0 294.3439022748381 -62.68921139574036)"><path d="M557.31 -130.47 C569.67 -129.69, 577.61 -129.42, 587.97 -126.22 M559.67 -131.37 C567.03 -129.29, 573.94 -129.64, 588.25 -126.44" stroke="#000000" stroke-width="1" fill="none"></path></g></g><mask id="mask-qeE-Fg1DNvsQLK7XEYarJ"><rect x="0" y="0" fill="#fff" width="1574.3576735854817" height="834.137960881028"></rect><rect x="1152.6485174583358" y="523.8035490228926" fill="#000" width="53.89198303222656" height="45" opacity="1"></rect></mask><g transform="translate(1152.6485174583358 523.8035490228926) rotate(0 26.52672917991879 22.422259223638093)"><text x="26.94599151611328" y="0" font-family="Virgil, Segoe UI Emoji" font-size="36px" fill="#000000" text-anchor="middle" style="white-space: pre;" direction="ltr" dominant-baseline="text-before-edge">170</text></g><g mask="url(#mask-Gj7yTc4BnKFpG2XHKByar)" stroke-linecap="round"><g transform="translate(607.0517736500763 322.1302871473822) rotate(0 430.5903690293981 70.19950788071355)"><path d="M-0.41 -0.54 C142.82 22.64, 715.92 116.29, 859.43 139.62 M1.58 1.8 C145.16 25.09, 718.52 117.83, 861.59 140.94" stroke="#000000" stroke-width="1" fill="none"></path></g><g transform="translate(607.0517736500763 322.1302871473822) rotate(0 430.5903690293981 70.19950788071355)"><path d="M831.23 144.81 C840.39 145.23, 849.06 142.64, 863.02 142.39 M832.27 145.67 C838.13 145.24, 844.81 143.99, 862.3 141.85" stroke="#000000" stroke-width="1" fill="none"></path></g><g transform="translate(607.0517736500763 322.1302871473822) rotate(0 430.5903690293981 70.19950788071355)"><path d="M834.5 124.55 C842.76 131.13, 850.43 134.72, 863.02 142.39 M835.55 125.41 C840.82 129.44, 846.79 132.62, 862.3 141.85" stroke="#000000" stroke-width="1" fill="none"></path></g></g><mask id="mask-Gj7yTc4BnKFpG2XHKByar"><rect x="0" y="0" fill="#fff" width="1567.5356347203406" height="562.1601894795926"></rect><rect x="1010.3477126690951" y="369.6452383134874" fill="#000" width="53.89198303222656" height="45" opacity="1"></rect></mask><g transform="translate(1010.3477126690951 369.6452383134874) rotate(0 27.294430010379244 22.684556714608334)"><text x="26.94599151611328" y="0" font-family="Virgil, Segoe UI Emoji" font-size="36px" fill="#000000" text-anchor="middle" style="white-space: pre;" direction="ltr" dominant-baseline="text-before-edge">170</text></g><g transform="translate(258.5529201415691 318.3683052921501) rotate(0 38.985044176788165 22.077723692371592)"><text x="38.96998596191406" y="0" font-family="Virgil, Segoe UI Emoji" font-size="36px" fill="#000000" text-anchor="middle" style="white-space: pre;" direction="ltr" dominant-baseline="text-before-edge">280</text></g><g transform="translate(1507.0653838743929 454.33887111829654) rotate(0 14.039993286132812 22.5)"><text x="14.039993286132812" y="0" font-family="Virgil, Segoe UI Emoji" font-size="36px" fill="#000000" text-anchor="middle" style="white-space: pre;" direction="ltr" dominant-baseline="text-before-edge">D</text></g><g transform="translate(827.809354419381 584.6039804448928) rotate(0 12.131996154785156 22.5)"><text x="12.131996154785156" y="0" font-family="Virgil, Segoe UI Emoji" font-size="36px" fill="#000000" text-anchor="middle" style="white-space: pre;" direction="ltr" dominant-baseline="text-before-edge">E</text></g><g transform="translate(1189.3664957262613 707.9705093300036) rotate(0 10.331993103027344 22.5)"><text x="10.331993103027344" y="0" font-family="Virgil, Segoe UI Emoji" font-size="36px" fill="#000000" text-anchor="middle" style="white-space: pre;" direction="ltr" dominant-baseline="text-before-edge">F</text></g><g stroke-linecap="round" transform="translate(829.155635444723 10) rotate(0 40 39)"><path d="M31.82 1.54 C38.55 -0.36, 48.59 -0.17, 55.17 2.39 C61.74 4.94, 67.01 11, 71.27 16.85 C75.53 22.7, 80.17 30.61, 80.73 37.47 C81.28 44.33, 78.29 51.89, 74.62 57.99 C70.95 64.09, 65.1 70.72, 58.73 74.07 C52.35 77.42, 43.46 78.88, 36.35 78.08 C29.25 77.27, 21.66 73.47, 16.12 69.26 C10.57 65.04, 5.76 59.4, 3.08 52.81 C0.39 46.23, -1.38 36.6, 0 29.75 C1.39 22.9, 5.7 16.49, 11.4 11.72 C17.1 6.96, 30.2 2.79, 34.22 1.14 C38.24 -0.5, 35.66 1.42, 35.51 1.83 M22.26 4.33 C28.25 1.03, 37.83 0.7, 45.2 1.25 C52.57 1.81, 60.88 3.49, 66.48 7.66 C72.08 11.84, 76.74 19.28, 78.77 26.29 C80.81 33.3, 80.81 42.9, 78.66 49.72 C76.51 56.54, 71.09 62.5, 65.85 67.23 C60.61 71.96, 54.1 76.87, 47.22 78.1 C40.34 79.33, 31.02 77.61, 24.59 74.59 C18.15 71.56, 12.79 65.5, 8.61 59.96 C4.43 54.42, 0.24 48.27, -0.51 41.34 C-1.26 34.41, 0.47 24.56, 4.1 18.37 C7.73 12.18, 18.38 6.26, 21.25 4.2 C24.12 2.14, 21.07 5.47, 21.31 6" stroke="#000000" stroke-width="1" fill="none"></path></g><g transform="translate(857.5633655400345 26.422835533724992) rotate(0 11.807998657226562 22.5)"><text x="11.807998657226562" y="0" font-family="Virgil, Segoe UI Emoji" font-size="36px" fill="#000000" text-anchor="middle" style="white-space: pre;" direction="ltr" dominant-baseline="text-before-edge">A</text></g><g transform="translate(410.85175867826274 140.971916292086) rotate(0 13.08599853515625 22.5)"><text x="13.08599853515625" y="0" font-family="Virgil, Segoe UI Emoji" font-size="36px" fill="#000000" text-anchor="middle" style="white-space: pre;" direction="ltr" dominant-baseline="text-before-edge">B</text></g><g transform="translate(543.0004356731122 298.00737052255454) rotate(0 11.591995239257812 22.5)"><text x="11.591995239257812" y="0" font-family="Virgil, Segoe UI Emoji" font-size="36px" fill="#000000" text-anchor="middle" style="white-space: pre;" direction="ltr" dominant-baseline="text-before-edge">C</text></g><g stroke-linecap="round" transform="translate(10 304.9117871478916) rotate(0 40 39)"><path d="M58.63 4.71 C64.76 7.36, 71.36 14.65, 74.82 20.83 C78.28 27, 79.81 35, 79.42 41.77 C79.03 48.53, 76.57 55.72, 72.48 61.41 C68.38 67.1, 61.8 73.41, 54.84 75.92 C47.88 78.43, 37.99 77.93, 30.74 76.48 C23.49 75.03, 16.15 71.96, 11.34 67.23 C6.54 62.5, 3.28 54.91, 1.9 48.09 C0.51 41.27, 0.84 33.13, 3.06 26.3 C5.28 19.47, 9.74 11.47, 15.23 7.14 C20.71 2.8, 28.51 0.59, 36 0.31 C43.48 0.03, 55.98 4.31, 60.15 5.48 C64.33 6.65, 61.27 6.65, 61.05 7.34 M27.65 3.01 C33.62 0.45, 41.85 -0.7, 48.84 1.04 C55.84 2.78, 64.54 8.29, 69.61 13.45 C74.69 18.61, 77.84 25.42, 79.27 32 C80.71 38.59, 81.12 46.27, 78.23 52.96 C75.34 59.65, 68.38 68.11, 61.93 72.15 C55.48 76.19, 46.8 77.17, 39.55 77.21 C32.3 77.25, 24.54 75.71, 18.44 72.38 C12.35 69.05, 6.18 63.61, 2.96 57.24 C-0.25 50.88, -1.71 41.25, -0.82 34.19 C0.07 27.13, 3.62 20.23, 8.28 14.88 C12.95 9.53, 23.89 4.07, 27.16 2.1 C30.43 0.13, 27.67 2.65, 27.91 3.08" stroke="#000000" stroke-width="1" fill="none"></path></g><g mask="url(#mask-9NJR8Xgzde1_QHfihJFPt)" stroke-linecap="round"><g transform="translate(63.184208362708205 384.9913050785208) rotate(0 543.3623257376888 172.55550611861327)"><path d="M1.19 0.97 C80.59 50.98, 295.33 241.85, 476.19 298.94 C657.06 356.02, 984.55 336.12, 1086.37 343.48 M0.35 0.43 C79.71 50.71, 294.97 242.88, 475.85 300.26 C656.73 357.63, 983.64 337.41, 1085.64 344.68" stroke="#000000" stroke-width="1" fill="none"></path></g><g transform="translate(63.184208362708205 384.9913050785208) rotate(0 543.3623257376888 172.55550611861327)"><path d="M1058.92 356.48 C1064.71 351.57, 1073.04 350.1, 1084.64 345.07 M1057.76 353.58 C1066.13 350.56, 1076.72 348.74, 1086.23 345.29" stroke="#000000" stroke-width="1" fill="none"></path></g><g transform="translate(63.184208362708205 384.9913050785208) rotate(0 543.3623257376888 172.55550611861327)"><path d="M1059.21 335.96 C1064.73 336.85, 1072.97 341.17, 1084.64 345.07 M1058.04 333.06 C1066.15 336.86, 1076.65 341.86, 1086.23 345.29" stroke="#000000" stroke-width="1" fill="none"></path></g></g><mask id="mask-9NJR8Xgzde1_QHfihJFPt"><rect x="0" y="0" fill="#fff" width="1249.5050887614645" height="828.6862943026954"></rect><rect x="502.05782867574976" y="661.8406162798583" fill="#000" width="72.323974609375" height="45" opacity="1"></rect></mask><g transform="translate(502.05782867574976 661.8406162798578) rotate(0 104.48870542464726 -104.29380508272425)"><text x="36.1619873046875" y="0" font-family="Virgil, Segoe UI Emoji" font-size="36px" fill="#000000" text-anchor="middle" style="white-space: pre;" direction="ltr" dominant-baseline="text-before-edge">290</text></g><g mask="url(#mask-wuMEHyPBdAV5p8sBfJJKk)" stroke-linecap="round"><g transform="translate(915.188925311375 59.59431731163113) rotate(0 282.8136898164624 195.37237645420737)"><path d="M0.05 -0.22 C58.43 41.82, 256.92 186.44, 351.41 251.83 C445.9 317.22, 531.27 368.68, 567 392.12 M-1.38 -1.38 C56.81 40.85, 256.28 187.83, 350.91 253.06 C445.53 318.29, 530.59 367.1, 566.36 389.99" stroke="#000000" stroke-width="1" fill="none"></path></g><g transform="translate(915.188925311375 59.59431731163113) rotate(0 282.8136898164624 195.37237645420737)"><path d="M536.61 385.36 C547.61 386.73, 560.89 387.14, 567.68 390.89 M537.48 384.88 C543.48 385.94, 549.57 385.92, 565.59 389.05" stroke="#000000" stroke-width="1" fill="none"></path></g><g transform="translate(915.188925311375 59.59431731163113) rotate(0 282.8136898164624 195.37237645420737)"><path d="M547.37 367.88 C554.04 376.18, 563.06 383.51, 567.68 390.89 M548.24 367.41 C551.94 371.95, 555.85 375.47, 565.59 389.05" stroke="#000000" stroke-width="1" fill="none"></path></g></g><mask id="mask-wuMEHyPBdAV5p8sBfJJKk"><rect x="0" y="0" fill="#fff" width="1581.9557474950166" height="551.3304358765727"></rect><rect x="1238.8091355250372" y="289.5231498548346" fill="#000" width="53.89198303222656" height="45" opacity="1"></rect></mask><g transform="translate(1238.8091355250372 289.5231498548346) rotate(0 -40.80652039719979 -34.55645608899613)"><text x="26.94599151611328" y="0" font-family="Virgil, Segoe UI Emoji" font-size="36px" fill="#000000" text-anchor="middle" style="white-space: pre;" direction="ltr" dominant-baseline="text-before-edge">170</text></g><g mask="url(#mask-XQfr2pPgPhoKn3sgU8oIu)" stroke-linecap="round"><g transform="translate(465.5897292736372 187.4840004442226) rotate(0 500.1021904458479 139.9851828733872)"><path d="M0.24 0.39 C166.61 47.23, 832.36 234.08, 999.09 280.42 M-1.1 -0.45 C165.57 46.1, 834.43 232.11, 1001.3 278.71" stroke="#000000" stroke-width="1" fill="none"></path></g><g transform="translate(465.5897292736372 187.4840004442226) rotate(0 500.1021904458479 139.9851828733872)"><path d="M972.04 279.45 C983.79 281.02, 991.61 277.91, 1000.25 279.72 M972.12 280.4 C982.37 279, 995.1 279, 1001.45 278.84" stroke="#000000" stroke-width="1" fill="none"></path></g><g transform="translate(465.5897292736372 187.4840004442226) rotate(0 500.1021904458479 139.9851828733872)"><path d="M977.55 259.68 C987.16 268.59, 992.94 272.79, 1000.25 279.72 M977.63 260.64 C985.83 267.05, 996.4 274.82, 1001.45 278.84" stroke="#000000" stroke-width="1" fill="none"></path></g></g><mask id="mask-XQfr2pPgPhoKn3sgU8oIu"><rect x="0" y="0" fill="#fff" width="1565.6280886049583" height="567.1189659073343"></rect><rect x="938.6629174231845" y="304.8014831757787" fill="#000" width="53.89198303222656" height="45" opacity="1"></rect></mask><g transform="translate(938.6629174231845 304.8014831757787) rotate(0 27.029002296300632 22.66770014183112)"><text x="26.94599151611328" y="0" font-family="Virgil, Segoe UI Emoji" font-size="36px" fill="#000000" text-anchor="middle" style="white-space: pre;" direction="ltr" dominant-baseline="text-before-edge">170</text></g><g mask="url(#mask-AIf_pNiBrmDor0pxPx0rs)" stroke-linecap="round"><g transform="translate(82.3666956854363 348.6634721055707) rotate(0 697.9103606544184 78.9053108133844)"><path d="M0.54 -1.17 C97.46 24.09, 347.87 131.09, 580.52 152.35 C813.17 173.62, 1260.44 130.81, 1396.45 126.43 M-0.63 0.83 C96.75 26.17, 350.04 132.92, 582.81 153.56 C815.58 174.2, 1260.27 129.62, 1396 124.67" stroke="#000000" stroke-width="1" fill="none"></path></g><g transform="translate(82.3666956854363 348.6634721055707) rotate(0 697.9103606544184 78.9053108133844)"><path d="M1366.58 135.37 C1373.46 134.94, 1382.45 132.46, 1397.23 126.13 M1368.72 136.69 C1375.29 134.24, 1382.31 131.95, 1396.95 124.05" stroke="#000000" stroke-width="1" fill="none"></path></g><g transform="translate(82.3666956854363 348.6634721055707) rotate(0 697.9103606544184 78.9053108133844)"><path d="M1365.26 114.89 C1372.57 118.98, 1381.85 121.01, 1397.23 126.13 M1367.41 116.22 C1374.12 118.63, 1381.46 121.2, 1396.95 124.05" stroke="#000000" stroke-width="1" fill="none"></path></g></g><mask id="mask-AIf_pNiBrmDor0pxPx0rs"><rect x="0" y="0" fill="#fff" width="1578.211131190536" height="601.64856356994"></rect><rect x="636.7524957994933" y="479.14856356994005" fill="#000" width="53.89198303222656" height="45" opacity="1"></rect></mask><g transform="translate(636.7524957994933 479.14856356994005) rotate(0 143.52456054036134 -51.57978065098496)"><text x="26.94599151611328" y="0" font-family="Virgil, Segoe UI Emoji" font-size="36px" fill="#000000" text-anchor="middle" style="white-space: pre;" direction="ltr" dominant-baseline="text-before-edge">170</text></g><g transform="translate(1897.7916853688764 340.67735779219447) rotate(0 14.472000122070312 22.5)"><text x="14.472000122070312" y="0" font-family="Virgil, Segoe UI Emoji" font-size="36px" fill="#000000" text-anchor="middle" style="white-space: pre;" direction="ltr" dominant-baseline="text-before-edge">T</text></g><g stroke-linecap="round" transform="translate(1872.0479567384086 324.25452225846993) rotate(0 40 39)"><path d="M53.32 2.76 C60.02 4.78, 67.72 10.28, 72.17 16.01 C76.62 21.75, 79.46 30.02, 80.04 37.17 C80.62 44.31, 79.28 52.77, 75.65 58.9 C72.03 65.03, 64.79 70.78, 58.29 73.93 C51.78 77.08, 43.59 78.61, 36.63 77.8 C29.67 77, 22.28 73.31, 16.55 69.08 C10.82 64.85, 4.75 58.86, 2.24 52.4 C-0.28 45.94, -0.1 37.02, 1.46 30.32 C3.03 23.61, 6.71 17.15, 11.61 12.17 C16.52 7.2, 22.46 1.63, 30.9 0.47 C39.34 -0.69, 56.23 3.43, 62.25 5.24 C68.28 7.05, 67.51 10.72, 67.06 11.31 M54.11 3.49 C60.75 5.56, 67.73 10.97, 72.02 16.67 C76.32 22.37, 79.5 30.85, 79.86 37.69 C80.22 44.53, 77.8 51.57, 74.16 57.69 C70.53 63.8, 64.48 70.95, 58.02 74.4 C51.57 77.85, 42.34 79.35, 35.44 78.39 C28.55 77.42, 22.26 73.02, 16.65 68.6 C11.04 64.18, 4.44 58.45, 1.8 51.88 C-0.85 45.31, -0.9 36.02, 0.79 29.18 C2.47 22.33, 6.76 15.45, 11.89 10.8 C17.03 6.16, 24.64 2.68, 31.61 1.31 C38.58 -0.06, 49.94 2.46, 53.71 2.59 C57.48 2.72, 54.51 1.56, 54.24 2.08" stroke="#000000" stroke-width="1" fill="none"></path></g><g mask="url(#mask-m0g9HmS8zayLJm-4r8gz8)" stroke-linecap="round"><g transform="translate(916.529398123231 55.33044903137943) rotate(0 477.9858011803035 147.85888973344436)"><path d="M0.87 -0.75 C80.71 13.35, 320.53 36.02, 479.73 85.34 C638.94 134.67, 876.71 260.17, 956.1 295.17 M-0.13 1.46 C80.02 15.61, 322.7 37.13, 481.96 86.29 C641.22 135.46, 876.38 261.43, 955.45 296.47" stroke="#000000" stroke-width="1" fill="none"></path></g><g transform="translate(916.529398123231 55.33044903137943) rotate(0 477.9858011803035 147.85888973344436)"><path d="M924.35 291.94 C934.48 294.73, 947.01 295.71, 955.7 297.79 M926.16 293.26 C936.57 295.53, 946.69 295.69, 955.49 296.96" stroke="#000000" stroke-width="1" fill="none"></path></g><g transform="translate(916.529398123231 55.33044903137943) rotate(0 477.9858011803035 147.85888973344436)"><path d="M933.25 273.45 C940.3 282.95, 949.63 290.57, 955.7 297.79 M935.07 274.77 C942.37 283.81, 949.2 290.79, 955.49 296.96" stroke="#000000" stroke-width="1" fill="none"></path></g></g><mask id="mask-m0g9HmS8zayLJm-4r8gz8"><rect x="0" y="0" fill="#fff" width="1972.3918543676389" height="450.53336622460665"></rect><rect x="1384.8028264522284" y="119.29215683857319" fill="#000" width="24.767990112304688" height="45" opacity="1"></rect></mask><g transform="translate(1384.8028264522284 119.29215683857319) rotate(0 9.7123728513061 83.8971819262506)"><text x="12.383995056152344" y="0" font-family="Virgil, Segoe UI Emoji" font-size="36px" fill="#000000" text-anchor="middle" style="white-space: pre;" direction="ltr" dominant-baseline="text-before-edge">0</text></g><g mask="url(#mask-AUZOrkCS32D18olMonD1I)" stroke-linecap="round"><g transform="translate(470.74279864127584 166.58620358093867) rotate(0 699.59050570404 90.41483411069657)"><path d="M0.23 -0.03 C127.84 0.39, 531.35 -30.96, 764.69 1.4 C998.03 33.75, 1294.29 162.24, 1400.28 194.09 M-1.1 -1.09 C126.44 -0.36, 530.33 -29.2, 763.84 3.01 C997.35 35.22, 1294.27 160.48, 1399.93 192.19" stroke="#000000" stroke-width="1" fill="none"></path></g><g transform="translate(470.74279864127584 166.58620358093867) rotate(0 699.59050570404 90.41483411069657)"><path d="M1369.88 192.9 C1376.87 193.76, 1384.69 194.26, 1398.69 193.31 M1368.97 192.41 C1378.31 192.74, 1386.5 191.83, 1400.89 191.3" stroke="#000000" stroke-width="1" fill="none"></path></g><g transform="translate(470.74279864127584 166.58620358093867) rotate(0 699.59050570404 90.41483411069657)"><path d="M1376.64 173.52 C1381.94 178.72, 1388.25 183.54, 1398.69 193.31 M1375.72 173.04 C1383.17 178.8, 1389.49 183.27, 1400.89 191.3" stroke="#000000" stroke-width="1" fill="none"></path></g></g><mask id="mask-AUZOrkCS32D18olMonD1I"><rect x="0" y="0" fill="#fff" width="1970.2347438629854" height="459.85347047180585"></rect><rect x="1222.8712759140117" y="145.33875749608387" fill="#000" width="24.767990112304688" height="45" opacity="1"></rect></mask><g mask="url(#mask-XsR4Y3YfIGqAybnsxQr9x)" stroke-linecap="round"><g transform="translate(597.3841842341528 318.552338349778) rotate(0 636.9259975399195 -13.71875361440334)"><path d="M0.18 0.15 C118.19 -10.79, 495.84 -72.24, 708.32 -65.67 C920.79 -59.11, 1180.66 21.91, 1275.04 39.53 M-1.18 -0.82 C116.72 -12.09, 495.11 -74.24, 707.78 -67.36 C920.46 -60.48, 1180.31 22.4, 1274.87 40.45" stroke="#000000" stroke-width="1" fill="none"></path></g><g transform="translate(597.3841842341528 318.552338349778) rotate(0 636.9259975399195 -13.71875361440334)"><path d="M1245.3 45.13 C1255.97 44.6, 1262.87 42.74, 1274.43 40.3 M1245.1 44.29 C1256.18 42.29, 1268.45 40.45, 1274.51 41.04" stroke="#000000" stroke-width="1" fill="none"></path></g><g transform="translate(597.3841842341528 318.552338349778) rotate(0 636.9259975399195 -13.71875361440334)"><path d="M1250.12 25.18 C1259.24 31.03, 1264.6 35.55, 1274.43 40.3 M1249.92 24.35 C1259 29.83, 1269.45 35.48, 1274.51 41.04" stroke="#000000" stroke-width="1" fill="none"></path></g></g><mask id="mask-XsR4Y3YfIGqAybnsxQr9x"><rect x="0" y="0" fill="#fff" width="1971.2756330310428" height="525.3248840966949"></rect><rect x="1292.525997027325" y="229.5529483021055" fill="#000" width="24.767990112304688" height="45" opacity="1"></rect></mask><g transform="translate(1292.525997027325 229.5529483021055) rotate(0 -58.215815253252686 75.28063643326914)"><text x="12.383995056152344" y="0" font-family="Virgil, Segoe UI Emoji" font-size="36px" fill="#000000" text-anchor="middle" style="white-space: pre;" direction="ltr" dominant-baseline="text-before-edge">0</text></g><g mask="url(#mask-ldquGi7yXSZS86AyATn0F)" stroke-linecap="round"><g transform="translate(1566.289250025442 474.35202926481406) rotate(0 150.08003193307297 -55.82775272840786)"><path d="M1.14 -0.75 C50.99 -19.74, 250.21 -94.6, 299.87 -113.13 M0.29 1.48 C49.97 -17.41, 249.61 -92.52, 299.28 -111.73" stroke="#000000" stroke-width="1" fill="none"></path></g><g transform="translate(1566.289250025442 474.35202926481406) rotate(0 150.08003193307297 -55.82775272840786)"><path d="M275.34 -90.99 C284.31 -99.66, 294.57 -108.62, 298.91 -111.66 M277.54 -93 C284.16 -98.29, 291.45 -106.24, 298.75 -111.7" stroke="#000000" stroke-width="1" fill="none"></path></g><g transform="translate(1566.289250025442 474.35202926481406) rotate(0 150.08003193307297 -55.82775272840786)"><path d="M268.04 -110.17 C279.81 -111.89, 292.74 -113.83, 298.91 -111.66 M270.24 -112.18 C279.38 -110.76, 289.22 -112.02, 298.75 -111.7" stroke="#000000" stroke-width="1" fill="none"></path></g></g><mask id="mask-ldquGi7yXSZS86AyATn0F"><rect x="0" y="0" fill="#fff" width="1965.4895137658084" height="687.2194062279314"></rect><rect x="1703.505386839473" y="395.41834078325564" fill="#000" width="24.767990112304688" height="45" opacity="1"></rect></mask><g transform="translate(1703.505386839473 395.41834078325564) rotate(0 12.863895119042127 23.10593575315056)"><text x="12.383995056152344" y="0" font-family="Virgil, Segoe UI Emoji" font-size="36px" fill="#000000" text-anchor="middle" style="white-space: pre;" direction="ltr" dominant-baseline="text-before-edge">0</text></g><g mask="url(#mask-8gG2O7I-Ggc2fvNn_mYNK)" stroke-linecap="round"><g transform="translate(1249.023773926493 726.1319155294764) rotate(0 308.5648268098727 -172.61381742182198)"><path d="M-0.09 0.91 C74.24 -7.79, 343.53 5.05, 446.67 -52.45 C549.8 -109.95, 590.08 -295.33, 618.73 -344.1 M-1.6 0.34 C73.03 -8.15, 345.51 6.72, 448.77 -51.03 C552.03 -108.77, 589.66 -297.28, 617.98 -346.14" stroke="#000000" stroke-width="1" fill="none"></path></g><g transform="translate(1249.023773926493 726.1319155294764) rotate(0 308.5648268098727 -172.61381742182198)"><path d="M618.63 -318.08 C617.13 -326.75, 618.77 -337.73, 617.36 -344.23 M616.14 -316.67 C616.88 -322.45, 616.87 -328.04, 617.25 -346.29" stroke="#000000" stroke-width="1" fill="none"></path></g><g transform="translate(1249.023773926493 726.1319155294764) rotate(0 308.5648268098727 -172.61381742182198)"><path d="M599.56 -325.65 C604.83 -331.61, 613.27 -339.89, 617.36 -344.23 M597.07 -324.24 C601.81 -328.53, 605.82 -332.53, 617.25 -346.29" stroke="#000000" stroke-width="1" fill="none"></path></g></g><mask id="mask-8gG2O7I-Ggc2fvNn_mYNK"><rect x="0" y="0" fill="#fff" width="1967.7028940282203" height="1170.8159114639875"></rect><rect x="1684.4681329626628" y="651.4015476613131" fill="#000" width="24.767990112304688" height="45" opacity="1"></rect></mask><g transform="translate(1684.4681329626628 651.401547661314) rotate(0 -126.87953222629693 -97.88344955365915)"><text x="12.383995056152344" y="0" font-family="Virgil, Segoe UI Emoji" font-size="36px" fill="#000000" text-anchor="middle" style="white-space: pre;" direction="ltr" dominant-baseline="text-before-edge">0</text></g><g mask="url(#mask-TKSRt403KTjQeF0Z5BlUB)" stroke-linecap="round"><g transform="translate(887.3874165439161 608.4954688930802) rotate(0 491.62046061715216 -111.47865642559668)"><path d="M0.05 0.58 C120.73 -1.68, 558.85 24.73, 722.95 -13.83 C887.05 -52.39, 941.28 -194.91, 984.63 -230.77 M-1.39 -0.15 C119.23 -2.23, 557.63 25.82, 721.93 -12.49 C886.24 -50.8, 940.94 -193.57, 984.47 -230.01" stroke="#000000" stroke-width="1" fill="none"></path></g><g transform="translate(887.3874165439161 608.4954688930802) rotate(0 491.62046061715216 -111.47865642559668)"><path d="M975.78 -201.83 C976.2 -205.48, 977.01 -213.88, 985.64 -231.97 M974.09 -200.85 C976.62 -208.82, 979.19 -215.26, 984.06 -229.86" stroke="#000000" stroke-width="1" fill="none"></path></g><g transform="translate(887.3874165439161 608.4954688930802) rotate(0 491.62046061715216 -111.47865642559668)"><path d="M959.78 -214.68 C963.43 -215.73, 967.49 -221.52, 985.64 -231.97 M958.09 -213.7 C964.52 -218.49, 971.06 -221.74, 984.06 -229.86" stroke="#000000" stroke-width="1" fill="none"></path></g></g><mask id="mask-TKSRt403KTjQeF0Z5BlUB"><rect x="0" y="0" fill="#fff" width="1970.8709833263833" height="938.1975151804145"></rect><rect x="1598.085924319304" y="572.5368811201629" fill="#000" width="24.767990112304688" height="45" opacity="1"></rect></mask><g transform="translate(1598.085924319304 572.5368811201629) rotate(0 -219.0780471582358 -75.52006865267936)"><text x="12.383995056152344" y="0" font-family="Virgil, Segoe UI Emoji" font-size="36px" fill="#000000" text-anchor="middle" style="white-space: pre;" direction="ltr" dominant-baseline="text-before-edge">0</text></g><g transform="translate(1222.8712759140117 145.33875749608387) rotate(0 -52.537971568695866 111.66228019555138)"><text x="12.383995056152344" y="0" font-family="Virgil, Segoe UI Emoji" font-size="36px" fill="#000000" text-anchor="middle" style="white-space: pre;" direction="ltr" dominant-baseline="text-before-edge">0</text></g><g mask="url(#mask-5MHbuSllfyRisoAalHAYD)" stroke-linecap="round"><g transform="translate(44.01436010947714 297.1853473354845) rotate(0 394.4907200541257 -138.2204836158087)"><path d="M0.89 1.15 C52.27 -36.21, 177.77 -177.63, 309.14 -224.09 C440.5 -270.54, 708.94 -268.96, 789.09 -277.59 M-0.11 0.7 C51.09 -36.47, 177.14 -176.45, 308.52 -222.66 C439.9 -268.87, 707.8 -267.38, 788.16 -276.56" stroke="#000000" stroke-width="1" fill="none"></path></g><g transform="translate(44.01436010947714 297.1853473354845) rotate(0 394.4907200541257 -138.2204836158087)"><path d="M762.56 -263.55 C770.51 -269.77, 780.15 -272.57, 790.15 -278.35 M760.98 -264.75 C770.64 -268.8, 780.97 -273.66, 788.64 -276.32" stroke="#000000" stroke-width="1" fill="none"></path></g><g transform="translate(44.01436010947714 297.1853473354845) rotate(0 394.4907200541257 -138.2204836158087)"><path d="M761.31 -284.04 C769.73 -282.65, 779.84 -277.86, 790.15 -278.35 M759.74 -285.24 C770.04 -281.76, 780.83 -279.1, 788.64 -276.32" stroke="#000000" stroke-width="1" fill="none"></path></g></g><mask id="mask-5MHbuSllfyRisoAalHAYD"><rect x="0" y="0" fill="#fff" width="933.4158778977146" height="674.2196418345698"></rect><rect x="316.19432558272024" y="50.80901957187916" fill="#000" width="72.64796447753906" height="45" opacity="1"></rect></mask><g transform="translate(316.19432558272024 50.80901957187916) rotate(0 122.31075458088259 108.15584414779664)"><text x="36.32398223876953" y="0" font-family="Virgil, Segoe UI Emoji" font-size="36px" fill="#000000" text-anchor="middle" style="white-space: pre;" direction="ltr" dominant-baseline="text-before-edge">250</text></g></svg>